<?xml version="1.0" encoding="UTF-8"?>
<svg id="Layer_1" data-name="Layer 1" xmlns="http://www.w3.org/2000/svg" viewBox="0 0 612 96.99">
  <g>
    <path d="M113.9,69.94v-35.73h-10.47v-7.28h28.02v7.28h-10.45v35.73h-7.1Z"/>
    <path d="M136.08,69.94V26.93h7.1v16.93h13.99v-16.93h7.1v43.01h-7.1v-18.81h-13.99v18.81h-7.1Z"/>
    <path d="M171.64,69.94V26.93h26.17v7.28h-19.07v9.54h17.72v7.25h-17.72v11.68h19.72v7.28h-26.82Z"/>
    <path d="M218.2,69.94V26.93h7.1v16.93h13.99v-16.93h7.1v43.01h-7.1v-18.81h-13.99v18.81h-7.1Z"/>
    <path d="M253.67,26.93h7.1v23.3c0,3.62.09,5.97.26,7.07.31,1.9,1.06,3.36,2.25,4.4,1.18,1.04,2.75,1.55,4.69,1.55,1.65,0,2.99-.37,4.03-1.1,1.04-.73,1.75-1.75,2.13-3.05.38-1.3.57-4.09.57-8.38v-23.79h7.1v22.59c0,5.77-.31,9.94-.92,12.51s-2.01,4.66-4.17,6.25c-2.16,1.59-5.01,2.39-8.55,2.39s-6.55-.66-8.61-1.98c-2.06-1.32-3.56-3.18-4.49-5.57-.93-2.4-1.39-6.81-1.39-13.25v-22.94Z"/>
    <path d="M289.29,26.93h14.13c3.86,0,6.57.35,8.14,1.06,1.57.7,2.89,1.95,3.96,3.73,1.08,1.78,1.61,3.79,1.61,6.04,0,2.07-.46,3.95-1.38,5.62s-2.12,2.91-3.59,3.71c2.09.74,3.73,2.01,4.91,3.81,1.18,1.8,1.77,3.99,1.77,6.57,0,3.13-.75,5.78-2.26,7.94-1.51,2.16-3.29,3.5-5.34,4.01-1.43.35-4.74.53-9.95.53h-12V26.93ZM296.39,34.09v9.95h4.69c2.82,0,4.56-.05,5.22-.15,1.21-.2,2.16-.71,2.85-1.54.68-.83,1.03-1.96,1.03-3.39,0-1.27-.28-2.3-.84-3.09-.56-.79-1.23-1.29-2.02-1.48-.79-.19-3.07-.29-6.82-.29h-4.11ZM296.39,51.19v11.47h6.61c2.9,0,4.76-.15,5.59-.45.82-.3,1.51-.9,2.07-1.79s.84-2.01.84-3.38-.3-2.56-.9-3.47-1.39-1.53-2.38-1.87c-.99-.34-3.01-.51-6.07-.51h-5.76Z"/>
    <path d="M324.84,26.93h14.13c3.86,0,6.57.35,8.14,1.06,1.57.7,2.89,1.95,3.96,3.73,1.08,1.78,1.61,3.79,1.61,6.04,0,2.07-.46,3.95-1.38,5.62s-2.12,2.91-3.59,3.71c2.09.74,3.73,2.01,4.91,3.81,1.18,1.8,1.77,3.99,1.77,6.57,0,3.13-.75,5.78-2.26,7.94-1.51,2.16-3.29,3.5-5.34,4.01-1.43.35-4.74.53-9.95.53h-12V26.93ZM331.94,34.09v9.95h4.69c2.82,0,4.56-.05,5.22-.15,1.21-.2,2.16-.71,2.85-1.54.68-.83,1.03-1.96,1.03-3.39,0-1.27-.28-2.3-.84-3.09-.56-.79-1.23-1.29-2.02-1.48-.79-.19-3.07-.29-6.82-.29h-4.11ZM331.94,51.19v11.47h6.61c2.9,0,4.76-.15,5.59-.45.82-.3,1.51-.9,2.07-1.79s.84-2.01.84-3.38-.3-2.56-.9-3.47-1.39-1.53-2.38-1.87c-.99-.34-3.01-.51-6.07-.51h-5.76Z"/>
    <path d="M360.34,26.93h7.1v23.3c0,3.62.09,5.97.26,7.07.31,1.9,1.06,3.36,2.25,4.4,1.18,1.04,2.75,1.55,4.69,1.55,1.65,0,2.99-.37,4.03-1.1,1.04-.73,1.75-1.75,2.13-3.05.38-1.3.57-4.09.57-8.38v-23.79h7.1v22.59c0,5.77-.31,9.94-.92,12.51s-2.01,4.66-4.17,6.25c-2.16,1.59-5.01,2.39-8.55,2.39s-6.55-.66-8.61-1.98c-2.06-1.32-3.56-3.18-4.49-5.57-.93-2.4-1.39-6.81-1.39-13.25v-22.94Z"/>
    <path d="M395.96,26.93h14.13c3.86,0,6.57.35,8.14,1.06,1.57.7,2.89,1.95,3.96,3.73,1.08,1.78,1.61,3.79,1.61,6.04,0,2.07-.46,3.95-1.38,5.62s-2.12,2.91-3.59,3.71c2.09.74,3.73,2.01,4.91,3.81,1.18,1.8,1.77,3.99,1.77,6.57,0,3.13-.75,5.78-2.26,7.94-1.51,2.16-3.29,3.5-5.34,4.01-1.43.35-4.74.53-9.95.53h-12V26.93ZM403.06,34.09v9.95h4.69c2.82,0,4.56-.05,5.22-.15,1.21-.2,2.16-.71,2.85-1.54.68-.83,1.03-1.96,1.03-3.39,0-1.27-.28-2.3-.84-3.09-.56-.79-1.23-1.29-2.02-1.48-.79-.19-3.07-.29-6.82-.29h-4.11ZM403.06,51.19v11.47h6.61c2.9,0,4.76-.15,5.59-.45.82-.3,1.51-.9,2.07-1.79s.84-2.01.84-3.38-.3-2.56-.9-3.47-1.39-1.53-2.38-1.87c-.99-.34-3.01-.51-6.07-.51h-5.76Z"/>
    <path d="M445.22,69.94V26.93h11.44c4.26,0,7.05.21,8.36.62,2.09.66,3.82,2.08,5.18,4.25,1.36,2.17,2.04,4.97,2.04,8.39,0,3.11-.59,5.72-1.76,7.82-1.17,2.1-2.64,3.58-4.4,4.43s-4.79,1.28-9.09,1.28h-4.66v16.22h-7.1ZM452.32,34.21v12.23h3.94c2.65,0,4.45-.19,5.4-.56.95-.37,1.73-1.04,2.34-2.01.61-.97.91-2.16.91-3.57s-.31-2.64-.94-3.62c-.63-.98-1.4-1.64-2.32-1.97-.92-.33-2.87-.5-5.85-.5h-3.47Z"/>
    <path d="M478.11,69.94V26.93h14.99c3.83,0,6.57.39,8.21,1.16,1.64.77,2.99,2.11,4.05,4.02s1.58,4.19,1.58,6.85c0,3.36-.81,6.07-2.42,8.13s-3.91,3.34-6.88,3.87c1.53,1.1,2.79,2.29,3.78,3.59s2.36,3.63,4.08,7l4.28,8.39h-8.5l-5.15-9.36c-1.86-3.38-3.12-5.5-3.78-6.35s-1.37-1.44-2.11-1.76c-.74-.32-1.94-.48-3.58-.48h-1.47v17.95h-7.1ZM485.21,45.12h5.28c3.23,0,5.28-.14,6.16-.42s1.59-.86,2.14-1.72.82-2.01.82-3.43-.27-2.47-.82-3.3-1.29-1.4-2.23-1.72c-.67-.22-2.59-.32-5.78-.32h-5.57v10.91Z"/>
    <path d="M513.67,69.94V26.93h26.17v7.28h-19.07v9.54h17.72v7.25h-17.72v11.68h19.72v7.28h-26.82Z"/>
    <path d="M544.71,55.92l6.95-.82c.78,5.5,3.35,8.24,7.69,8.24,2.15,0,3.84-.56,5.08-1.69,1.23-1.12,1.85-2.52,1.85-4.18,0-.98-.22-1.81-.65-2.49-.43-.68-1.09-1.24-1.97-1.69-.88-.44-3.01-1.18-6.4-2.21-3.03-.92-5.25-1.91-6.66-2.99-1.41-1.07-2.53-2.49-3.36-4.24s-1.25-3.63-1.25-5.64c0-2.35.53-4.46,1.6-6.33,1.07-1.88,2.54-3.29,4.42-4.25,1.88-.96,4.19-1.44,6.95-1.44,4.15,0,7.38,1.12,9.71,3.37,2.33,2.25,3.56,5.47,3.7,9.65l-7.13.38c-.31-2.31-.99-3.92-2.02-4.84-1.04-.92-2.51-1.38-4.43-1.38s-3.39.4-4.43,1.2-1.55,1.79-1.55,2.98.47,2.15,1.41,2.95c.94.8,3.1,1.68,6.49,2.64,3.58,1.04,6.16,2.13,7.76,3.27,1.59,1.14,2.81,2.62,3.65,4.43.84,1.81,1.26,4,1.26,6.59,0,3.73-1.15,6.87-3.45,9.42-2.3,2.54-5.89,3.81-10.78,3.81-8.64,0-13.46-4.92-14.43-14.76Z"/>
    <path d="M577.56,55.92l6.95-.82c.78,5.5,3.35,8.24,7.69,8.24,2.15,0,3.84-.56,5.08-1.69,1.23-1.12,1.85-2.52,1.85-4.18,0-.98-.22-1.81-.65-2.49-.43-.68-1.09-1.24-1.97-1.69-.88-.44-3.01-1.18-6.4-2.21-3.03-.92-5.25-1.91-6.66-2.99-1.41-1.07-2.53-2.49-3.36-4.24s-1.25-3.63-1.25-5.64c0-2.35.53-4.46,1.6-6.33,1.07-1.88,2.54-3.29,4.42-4.25,1.88-.96,4.19-1.44,6.95-1.44,4.15,0,7.38,1.12,9.71,3.37,2.33,2.25,3.56,5.47,3.7,9.65l-7.13.38c-.31-2.31-.99-3.92-2.02-4.84-1.04-.92-2.51-1.38-4.43-1.38s-3.39.4-4.43,1.2-1.55,1.79-1.55,2.98.47,2.15,1.41,2.95c.94.8,3.1,1.68,6.49,2.64,3.58,1.04,6.16,2.13,7.76,3.27,1.59,1.14,2.81,2.62,3.65,4.43.84,1.81,1.26,4,1.26,6.59,0,3.73-1.15,6.87-3.45,9.42-2.3,2.54-5.89,3.81-10.78,3.81-8.64,0-13.46-4.92-14.43-14.76Z"/>
  </g>
  <g>
    <path d="M42.96,16.86c-2.91.36-7.63,1.34-11.01,3.98-2.37,1.86-3.67,4.76-3.67,7.77v14.23s-4.6-.06-4.6-.06c-1.2-.01-2.85.48-3.78,1.23-1.55,1.25-3.66,3.9-3.25,7.42.37,3.15,2.04,5.4,3.46,6.8.51.5,1.33.02,1.14-.67-.18-.66-.28-1.39-.18-2.08s.68-1.14,1.34-1.14h5.77v13.03c0,1.11-.29,2.2-.88,3.13-.38.59-.92,1.23-1.69,1.82-.53.41-.28,1.26.39,1.26,4.31,0,13.08-.92,13.84-8.5V27.06c0-1.28.26-2.54.75-3.72.66-1.56,1.71-3.71,3.03-5.19.47-.53.02-1.37-.69-1.28Z"/>
    <path d="M40.22,9.75c-1.38,2.4-4.84,6.81-12.15,8.4-1.86.41-3.8.27-5.61-.33-4-1.33-12.3-3.24-15.02,2.68-.16.34-.65.28-.7-.09-.24-1.87-.06-5.6,3.89-9.33,2.69-2.54,6.35-3.94,10.04-3.59,2.23.21,4.82.96,7.26,2.87,4.48,3.51,9.44.66,11.75-1.09.32-.25.74.13.54.49Z"/>
    <path d="M83.26,82.58l-13.3,9.11c-.43.29-1.03.15-1.27-.31-.09-.16-.18-.31-.26-.48-2.01-3.6-6.02-5.54-10.08-4.91-1.18.19-2.29.41-3.15.6-.59.13-1.03-.51-.71-1.02,1.4-2.28,4.45-6.59,7.36-7.03v-24.19h-14.65v24.54l4.26-3.05c.14-.11.33-.1.46.01l1.23.99c.18.15.19.43.01.59l-14.31,13.21c-.46.43-1.18.44-1.65.04-2.92-2.43-13.25-9.5-25.97-.45-1.49.41-1.96,0-1.32-1.3,0,0,18.78-20.02,34.62-9.56V12.31l-2.31-2.32c-.26-.26-.26-.69,0-.95l3.25-3.25c.26-.26.69-.26.95,0l3.25,3.25c.26.26.26.69,0,.95l-2.33,2.33v29.93h14.57v-23.39c-1.43-1.03-2.47-2.43-3.05-4.25l-5.36,3.57-.76-1.39c-.13-.23-.06-.51.15-.65l13.3-9.11c.43-.29,1.03-.15,1.28.31.08.16.16.31.26.48,1.99,3.6,6,5.54,10.07,4.91,1.18-.19,2.29-.41,3.15-.6.59-.14,1.03.5.71,1.02-1.44,2.33-4.59,6.79-7.56,7.06v59.64h.15c1.39.86,2.43,2.29,3.05,4.26l5.36-3.57.76,1.39c.13.23.06.51-.15.65Z"/>
  </g>
</svg>