<?xml version="1.0" encoding="UTF-8"?>
<svg id="Layer_1" data-name="Layer 1" xmlns="http://www.w3.org/2000/svg" viewBox="0 0 267.12 267.11">
  <defs>
    <style>
      .cls-1 {
        fill: #fff;
      }
    </style>
  </defs>
  <path class="cls-1" d="M127.46,41.49c-8.42,1.04-22.06,3.86-31.82,11.52-6.84,5.36-10.6,13.76-10.6,22.45v41.13s-13.29-.16-13.29-.16c-3.47-.04-8.23,1.38-10.93,3.55-4.49,3.61-10.59,11.28-9.39,21.46,1.07,9.09,5.89,15.62,10.01,19.65,1.47,1.43,3.83.05,3.3-1.93-.52-1.91-.81-4.02-.51-6.01s1.96-3.3,3.88-3.3h16.69v37.64c0,3.2-.82,6.36-2.56,9.05-1.1,1.7-2.66,3.55-4.88,5.27-1.53,1.19-.8,3.63,1.14,3.64,12.45.01,37.81-2.67,40-24.56v-109.93c0-3.7.74-7.33,2.18-10.74,1.9-4.5,4.95-10.72,8.76-15.01,1.37-1.54.07-3.97-1.98-3.71Z"/>
  <path class="cls-1" d="M119.54,20.93c-4,6.93-14,19.67-35.11,24.29-5.38,1.18-10.98.79-16.2-.96-11.56-3.86-35.54-9.37-43.42,7.74-.45.97-1.89.81-2.03-.26-.69-5.41-.18-16.18,11.25-26.97,7.79-7.35,18.35-11.39,29.01-10.38,6.45.61,13.94,2.78,20.98,8.29,12.95,10.14,27.28,1.9,33.95-3.15.93-.71,2.14.39,1.56,1.4Z"/>
  <path class="cls-1" d="M243.92,231.41l-38.43,26.34c-1.23.83-2.97.43-3.66-.91-.25-.47-.51-.91-.76-1.38-5.8-10.4-17.39-16.01-29.12-14.2-3.41.54-6.63,1.2-9.09,1.74-1.7.36-2.97-1.49-2.06-2.93,4.06-6.59,12.86-19.05,21.26-20.32v-69.91h-42.35v70.93l12.32-8.8c.4-.33.94-.29,1.34.04l3.55,2.86c.51.43.54,1.23.04,1.7l-41.37,38.18c-1.34,1.23-3.41,1.27-4.78.11-8.44-7.03-38.29-27.46-75.06-1.3-4.31,1.2-5.65,0-3.8-3.77,0,0,54.26-57.85,100.05-27.64V28.33l-6.67-6.7c-.76-.76-.76-1.99,0-2.75l9.38-9.38c.76-.76,1.99-.76,2.75,0l9.38,9.38c.76.76.76,1.99,0,2.75l-6.74,6.74v86.5h42.09V47.28c-4.13-2.97-7.14-7.03-8.8-12.28l-15.5,10.32-2.21-4.02c-.36-.65-.18-1.49.43-1.88l38.43-26.34c1.23-.83,2.97-.43,3.7.91.22.47.47.91.76,1.38,5.76,10.4,17.35,16.01,29.09,14.2,3.41-.54,6.63-1.2,9.09-1.74,1.7-.4,2.97,1.45,2.06,2.93-4.17,6.74-13.26,19.63-21.84,20.39v172.36l.43.04c4.02,2.46,7.03,6.59,8.8,12.28l15.5-10.32,2.21,4.02c.36.65.18,1.49-.43,1.88Z"/>
</svg>