<?xml version="1.0" encoding="UTF-8"?>
<svg id="Layer_1" data-name="Layer 1" xmlns="http://www.w3.org/2000/svg" viewBox="0 0 267.12 157.68">
  <defs>
    <style>
      .cls-1 {
        fill: #fff;
      }
    </style>
  </defs>
  <g>
    <path class="cls-1" d="M125.12,18.15c-3.52.43-9.21,1.61-13.29,4.81-2.85,2.24-4.43,5.74-4.43,9.37v17.18s-5.55-.07-5.55-.07c-1.45-.02-3.44.58-4.56,1.48-1.88,1.51-4.42,4.71-3.92,8.96.45,3.8,2.46,6.52,4.18,8.2.61.6,1.6.02,1.38-.81-.22-.8-.34-1.68-.21-2.51s.82-1.38,1.62-1.38h6.97v15.72c0,1.34-.34,2.66-1.07,3.78-.46.71-1.11,1.48-2.04,2.2-.64.5-.33,1.52.48,1.52,5.2,0,15.79-1.11,16.7-10.25V30.46c0-1.54.31-3.06.91-4.48.79-1.88,2.07-4.48,3.66-6.27.57-.64.03-1.66-.83-1.55Z"/>
    <path class="cls-1" d="M121.82,9.57c-1.67,2.89-5.85,8.21-14.66,10.14-2.25.49-4.58.33-6.77-.4-4.83-1.61-14.84-3.91-18.13,3.23-.19.41-.79.34-.85-.11-.29-2.26-.07-6.75,4.7-11.26,3.25-3.07,7.66-4.76,12.12-4.34,2.69.26,5.82,1.16,8.76,3.46,5.41,4.23,11.39.79,14.18-1.32.39-.3.9.16.65.59Z"/>
    <path class="cls-1" d="M173.75,97.46l-16.04,10.99c-.52.36-1.24.19-1.54-.37-.11-.19-.21-.38-.32-.58-2.41-4.33-7.25-6.69-12.15-5.92-1.42.22-2.77.5-3.8.72-.71.16-1.24-.61-.86-1.23,1.71-2.74,5.37-7.95,8.88-8.49v-29.19h-17.68v29.62l5.13-3.68c.17-.12.4-.12.56.02l1.48,1.2c.22.18.24.51.02.7l-17.28,15.95c-.56.52-1.41.53-2,.04-3.52-2.93-15.98-11.46-31.34-.55-1.8.51-2.36.01-1.59-1.57,0,0,22.66-24.16,41.79-11.53V12.66h.01l-2.8-2.8c-.32-.32-.32-.84,0-1.16l3.92-3.91c.32-.32.84-.32,1.15,0l3.92,3.91c.32.32.32.84,0,1.16l-2.82,2.82v36.11h17.58v-28.22c-1.73-1.23-2.98-2.93-3.68-5.13l-6.46,4.31-.93-1.68c-.15-.27-.07-.61.19-.79l16.04-10.99c.52-.36,1.24-.19,1.54.37.11.19.21.39.32.58,2.41,4.33,7.25,6.69,12.16,5.92,1.42-.22,2.77-.5,3.79-.72.71-.16,1.24.61.86,1.23-1.74,2.8-5.54,8.2-9.12,8.52v71.96l.19.02c1.68,1.02,2.93,2.75,3.68,5.13l6.47-4.31.93,1.67c.15.27.07.62-.19.79Z"/>
  </g>
  <g>
    <path class="cls-1" d="M9.74,152.76v-18.29h-5.36v-3.72h14.34v3.72h-5.35v18.29h-3.63Z"/>
    <path class="cls-1" d="M21.09,152.76v-22.01h3.63v8.66h7.16v-8.66h3.63v22.01h-3.63v-9.62h-7.16v9.62h-3.63Z"/>
    <path class="cls-1" d="M39.29,152.76v-22.01h13.39v3.72h-9.76v4.88h9.07v3.71h-9.07v5.98h10.09v3.72h-13.72Z"/>
    <path class="cls-1" d="M63.12,152.76v-22.01h3.63v8.66h7.16v-8.66h3.63v22.01h-3.63v-9.62h-7.16v9.62h-3.63Z"/>
    <path class="cls-1" d="M81.27,130.74h3.63v11.92c0,1.85.05,3.06.14,3.62.16.97.54,1.72,1.15,2.25.61.53,1.41.8,2.4.8.84,0,1.53-.19,2.06-.56.53-.38.9-.9,1.09-1.56.2-.67.29-2.09.29-4.29v-12.18h3.63v11.56c0,2.95-.16,5.09-.47,6.4s-1.03,2.38-2.13,3.2c-1.11.82-2.57,1.22-4.38,1.22s-3.35-.34-4.41-1.01c-1.06-.68-1.82-1.63-2.3-2.85-.48-1.23-.71-3.49-.71-6.78v-11.74Z"/>
    <path class="cls-1" d="M99.5,130.74h7.23c1.97,0,3.36.18,4.16.54.8.36,1.48,1,2.03,1.91.55.91.83,1.94.83,3.09,0,1.06-.24,2.02-.71,2.88s-1.09,1.49-1.84,1.9c1.07.38,1.91,1.03,2.51,1.95.61.92.91,2.04.91,3.36,0,1.6-.39,2.96-1.16,4.06-.77,1.11-1.68,1.79-2.73,2.05-.73.18-2.43.27-5.09.27h-6.14v-22.01ZM103.13,134.41v5.09h2.4c1.44,0,2.33-.03,2.67-.08.62-.1,1.11-.36,1.46-.79.35-.43.53-1,.53-1.73,0-.65-.14-1.18-.43-1.58-.29-.41-.63-.66-1.04-.76-.41-.1-1.57-.15-3.49-.15h-2.1ZM103.13,143.16v5.87h3.38c1.48,0,2.44-.08,2.86-.23.42-.16.77-.46,1.06-.91s.43-1.03.43-1.73-.15-1.31-.46-1.77-.71-.78-1.22-.96c-.51-.17-1.54-.26-3.11-.26h-2.95Z"/>
    <path class="cls-1" d="M117.7,130.74h7.23c1.97,0,3.36.18,4.16.54.8.36,1.48,1,2.03,1.91.55.91.83,1.94.83,3.09,0,1.06-.24,2.02-.71,2.88s-1.09,1.49-1.84,1.9c1.07.38,1.91,1.03,2.51,1.95.61.92.91,2.04.91,3.36,0,1.6-.39,2.96-1.16,4.06-.77,1.11-1.68,1.79-2.73,2.05-.73.18-2.43.27-5.09.27h-6.14v-22.01ZM121.33,134.41v5.09h2.4c1.44,0,2.33-.03,2.67-.08.62-.1,1.11-.36,1.46-.79.35-.43.53-1,.53-1.73,0-.65-.14-1.18-.43-1.58-.29-.41-.63-.66-1.04-.76-.41-.1-1.57-.15-3.49-.15h-2.1ZM121.33,143.16v5.87h3.38c1.48,0,2.44-.08,2.86-.23.42-.16.77-.46,1.06-.91s.43-1.03.43-1.73-.15-1.31-.46-1.77-.71-.78-1.22-.96c-.51-.17-1.54-.26-3.11-.26h-2.95Z"/>
    <path class="cls-1" d="M135.87,130.74h3.63v11.92c0,1.85.05,3.06.14,3.62.16.97.54,1.72,1.15,2.25.61.53,1.41.8,2.4.8.84,0,1.53-.19,2.06-.56.53-.38.9-.9,1.09-1.56.2-.67.29-2.09.29-4.29v-12.18h3.63v11.56c0,2.95-.16,5.09-.47,6.4s-1.03,2.38-2.13,3.2c-1.11.82-2.57,1.22-4.38,1.22s-3.35-.34-4.41-1.01c-1.06-.68-1.82-1.63-2.3-2.85-.48-1.23-.71-3.49-.71-6.78v-11.74Z"/>
    <path class="cls-1" d="M154.09,130.74h7.23c1.97,0,3.36.18,4.16.54.8.36,1.48,1,2.03,1.91.55.91.83,1.94.83,3.09,0,1.06-.24,2.02-.71,2.88s-1.09,1.49-1.84,1.9c1.07.38,1.91,1.03,2.51,1.95.61.92.91,2.04.91,3.36,0,1.6-.39,2.96-1.16,4.06-.77,1.11-1.68,1.79-2.73,2.05-.73.18-2.43.27-5.09.27h-6.14v-22.01ZM157.73,134.41v5.09h2.4c1.44,0,2.33-.03,2.67-.08.62-.1,1.11-.36,1.46-.79.35-.43.53-1,.53-1.73,0-.65-.14-1.18-.43-1.58-.29-.41-.63-.66-1.04-.76-.41-.1-1.57-.15-3.49-.15h-2.1ZM157.73,143.16v5.87h3.38c1.48,0,2.44-.08,2.86-.23.42-.16.77-.46,1.06-.91s.43-1.03.43-1.73-.15-1.31-.46-1.77-.71-.78-1.22-.96c-.51-.17-1.54-.26-3.11-.26h-2.95Z"/>
    <path class="cls-1" d="M179.3,152.76v-22.01h5.86c2.18,0,3.61.11,4.28.32,1.07.34,1.95,1.07,2.65,2.18.7,1.11,1.04,2.54,1.04,4.29,0,1.59-.3,2.93-.9,4-.6,1.08-1.35,1.83-2.25,2.27-.9.44-2.45.65-4.65.65h-2.39v8.3h-3.63ZM182.94,134.47v6.26h2.02c1.35,0,2.28-.1,2.76-.29.49-.19.89-.53,1.2-1.03.31-.5.47-1.11.47-1.83s-.16-1.35-.48-1.85c-.32-.5-.72-.84-1.19-1.01-.47-.17-1.47-.26-3-.26h-1.78Z"/>
    <path class="cls-1" d="M196.14,152.76v-22.01h7.67c1.96,0,3.36.2,4.2.59.84.4,1.53,1.08,2.07,2.06s.81,2.14.81,3.51c0,1.72-.41,3.11-1.24,4.16s-2,1.71-3.52,1.98c.78.56,1.43,1.17,1.94,1.84s1.21,1.86,2.09,3.58l2.19,4.29h-4.35l-2.64-4.79c-.95-1.73-1.59-2.82-1.93-3.25s-.7-.74-1.08-.9c-.38-.16-.99-.25-1.83-.25h-.75v9.19h-3.63ZM199.77,140.05h2.7c1.65,0,2.7-.07,3.15-.22s.82-.44,1.1-.88.42-1.03.42-1.76-.14-1.26-.42-1.69-.66-.72-1.14-.88c-.34-.11-1.33-.17-2.96-.17h-2.85v5.59Z"/>
    <path class="cls-1" d="M214.33,152.76v-22.01h13.39v3.72h-9.76v4.88h9.07v3.71h-9.07v5.98h10.09v3.72h-13.72Z"/>
    <path class="cls-1" d="M230.22,145.58l3.56-.42c.4,2.81,1.71,4.22,3.93,4.22,1.1,0,1.97-.29,2.6-.86.63-.58.95-1.29.95-2.14,0-.5-.11-.93-.33-1.28-.22-.35-.56-.64-1.01-.86-.45-.22-1.54-.6-3.27-1.13-1.55-.47-2.69-.98-3.41-1.53-.72-.55-1.29-1.27-1.72-2.17s-.64-1.86-.64-2.89c0-1.2.27-2.28.82-3.24.55-.96,1.3-1.69,2.26-2.18.96-.49,2.15-.74,3.56-.74,2.12,0,3.78.58,4.97,1.73,1.19,1.15,1.82,2.8,1.89,4.94l-3.65.19c-.16-1.18-.51-2.01-1.04-2.48-.53-.47-1.29-.71-2.27-.71s-1.74.2-2.27.61-.8.92-.8,1.53.24,1.1.72,1.51c.48.41,1.59.86,3.32,1.35,1.83.53,3.15,1.09,3.97,1.67.82.59,1.44,1.34,1.87,2.27.43.93.65,2.05.65,3.37,0,1.91-.59,3.52-1.76,4.82-1.18,1.3-3.02,1.95-5.52,1.95-4.42,0-6.89-2.52-7.39-7.55Z"/>
    <path class="cls-1" d="M247.04,145.58l3.56-.42c.4,2.81,1.71,4.22,3.93,4.22,1.1,0,1.97-.29,2.6-.86.63-.58.95-1.29.95-2.14,0-.5-.11-.93-.33-1.28-.22-.35-.56-.64-1.01-.86-.45-.22-1.54-.6-3.27-1.13-1.55-.47-2.69-.98-3.41-1.53-.72-.55-1.29-1.27-1.72-2.17s-.64-1.86-.64-2.89c0-1.2.27-2.28.82-3.24.55-.96,1.3-1.69,2.26-2.18.96-.49,2.15-.74,3.56-.74,2.12,0,3.78.58,4.97,1.73,1.19,1.15,1.82,2.8,1.89,4.94l-3.65.19c-.16-1.18-.51-2.01-1.04-2.48-.53-.47-1.29-.71-2.27-.71s-1.74.2-2.27.61-.8.92-.8,1.53.24,1.1.72,1.51c.48.41,1.59.86,3.32,1.35,1.83.53,3.15,1.09,3.97,1.67.82.59,1.44,1.34,1.87,2.27.43.93.65,2.05.65,3.37,0,1.91-.59,3.52-1.76,4.82-1.18,1.3-3.02,1.95-5.52,1.95-4.42,0-6.89-2.52-7.39-7.55Z"/>
  </g>
</svg>