<?xml version="1.0" encoding="UTF-8"?>
<svg id="Icons" xmlns="http://www.w3.org/2000/svg" viewBox="0 0 417.3 416">
  <defs>
    <style>
      .cls-1 {
        fill: #231f20;
      }
    </style>
  </defs>
  <path class="cls-1" d="M208.65,370c-89.33,0-162-72.67-162-162S119.32,46,208.65,46s162,72.67,162,162-72.67,162-162,162ZM208.65,69.28c-76.49,0-138.72,62.23-138.72,138.72s62.23,138.72,138.72,138.72,138.72-62.23,138.72-138.72-62.23-138.72-138.72-138.72Z"/>
  <path class="cls-1" d="M207.69,217.28c-6.43,0-11.64-5.21-11.64-11.64v-70.75c0-6.43,5.21-11.64,11.64-11.64s11.64,5.21,11.64,11.64v70.75c0,6.43-5.21,11.64-11.64,11.64Z"/>
  <path class="cls-1" d="M274.23,284.57c-2.98,0-5.96-1.14-8.23-3.41l-65.84-65.84c-4.54-4.55-4.54-11.91,0-16.46,4.55-4.54,11.91-4.54,16.46,0l65.84,65.84c4.54,4.55,4.54,11.91,0,16.46-2.27,2.27-5.25,3.41-8.23,3.41Z"/>
</svg>