<?xml version="1.0" encoding="UTF-8"?>
<svg id="Icons" xmlns="http://www.w3.org/2000/svg" viewBox="0 0 417.3 416">
  <defs>
    <style>
      .cls-1 {
        fill: #231f20;
      }
    </style>
  </defs>
  <circle class="cls-1" cx="327.62" cy="103.84" r="43.03"/>
  <circle class="cls-1" cx="210.05" cy="103.84" r="43.03"/>
  <path class="cls-1" d="M92.47,149.66c-25.27,0-45.82-20.56-45.82-45.82s20.55-45.82,45.82-45.82,45.82,20.55,45.82,45.82-20.55,45.82-45.82,45.82ZM92.47,63.6c-22.19,0-40.24,18.05-40.24,40.24s18.05,40.24,40.24,40.24,40.24-18.05,40.24-40.24-18.05-40.24-40.24-40.24Z"/>
  <circle class="cls-1" cx="327.62" cy="210.58" r="43.03"/>
  <circle class="cls-1" cx="210.05" cy="210.58" r="43.03"/>
  <circle class="cls-1" cx="92.47" cy="210.58" r="43.03"/>
  <circle class="cls-1" cx="327.62" cy="314.95" r="43.03"/>
  <circle class="cls-1" cx="210.05" cy="314.95" r="43.03"/>
  <circle class="cls-1" cx="92.47" cy="314.95" r="43.03"/>
</svg>