<?xml version="1.0" encoding="UTF-8"?>
<svg id="Icons" xmlns="http://www.w3.org/2000/svg" viewBox="0 0 417.3 416">
  <defs>
    <style>
      .cls-1 {
        fill: #231f20;
      }
    </style>
  </defs>
  <path class="cls-1" d="M208.65,369.89c-89.27,0-161.89-72.62-161.89-161.89S119.38,46.11,208.65,46.11s161.89,72.62,161.89,161.89-72.62,161.89-161.89,161.89ZM208.65,61.67c-80.69,0-146.33,65.64-146.33,146.33s65.64,146.33,146.33,146.33,146.33-65.64,146.33-146.33S289.34,61.67,208.65,61.67Z"/>
  <path class="cls-1" d="M294.7,246.57c-3.56-11.14-12.35-19.96-23.47-23.57.17-4.95.26-9.96.26-15,0-14.84-.78-29.36-2.24-43.29h84.34v-15.78h-86.33c-2.89-19.42-7.22-37.3-12.85-52.63-11.92-32.44-28.76-50.31-47.44-50.31s-35.52,17.86-47.44,50.31c-3.35,9.13-6.24,19.17-8.65,29.91-14.5.68-26.81,9.9-31.99,22.72h-55.61v15.78h53.03c.92,15.64,11.76,28.65,26.3,32.8-.08,3.49-.14,6.97-.14,10.49,0,13.16.59,26.11,1.76,38.57h-79.47v15.78h81.26c2.88,21.26,7.44,40.78,13.52,57.34,11.92,32.44,28.77,50.31,47.44,50.31s35.52-17.86,47.44-50.31c2.93-7.94,5.48-16.59,7.69-25.75,17.52-.98,31.76-14.42,34-31.59h58.97v-15.78h-60.37ZM255.72,208c0,4.59-.09,9.09-.23,13.54-14.19,1.77-25.88,11.76-30.11,25.04h-65.34c-1.17-12.12-1.81-25.02-1.81-38.57,0-3.22.05-6.38.12-9.52,16.63-2.66,29.55-16.63,30.56-33.77h64.5c1.48,13.49,2.3,27.96,2.3,43.29ZM206.97,61.78c17.3,0,36.1,33.84,44.39,87.15h-65.03c-3.67-9.06-10.89-16.32-19.93-20.04,9.41-41.61,25.55-67.11,40.57-67.11ZM143.31,181.16c-6.21-3.11-10.66-9.23-11.42-16.45-.06-.72-.11-1.43-.11-2.16,0-5.2,1.93-9.96,5.1-13.62,2.8-3.22,6.57-5.57,10.85-6.61,1.57-.37,3.19-.59,4.87-.59,3.91,0,7.56,1.1,10.69,2.97,1.9,1.15,3.59,2.57,5.04,4.23,3.16,3.66,5.1,8.42,5.1,13.62,0,.73-.05,1.45-.12,2.16-.86,8.29-6.6,15.14-14.28,17.63-2.02.67-4.19,1.03-6.43,1.03-3.33,0-6.49-.81-9.29-2.21ZM206.97,354.22c-17.8,0-37.17-35.85-45.06-91.87h62.07c1.73,13.23,10.58,24.24,22.56,29.05-9.54,39.06-25.07,62.82-39.57,62.82ZM280.29,262.35c-1.73,7.44-7.45,13.34-14.78,15.34-1.74.47-3.58.75-5.48.75-3.69,0-7.16-.98-10.16-2.66-5.03-2.83-8.75-7.67-10.1-13.43-.36-1.52-.56-3.1-.56-4.73,0-4.06,1.18-7.84,3.21-11.05,2.75-4.39,7.11-7.67,12.25-9.06,1.73-.45,3.52-.72,5.37-.72,3.75,0,7.25,1,10.3,2.74,2.99,1.71,5.51,4.12,7.33,7.03,2.02,3.21,3.21,6.99,3.21,11.05,0,1.63-.22,3.21-.58,4.73Z"/>
</svg>