<?xml version="1.0" encoding="UTF-8"?>
<svg id="Icons" xmlns="http://www.w3.org/2000/svg" xmlns:xlink="http://www.w3.org/1999/xlink" viewBox="0 0 417.3 416">
  <defs>
    <style>
      .cls-1 {
        fill: none;
      }

      .cls-2 {
        fill: #231f20;
      }

      .cls-3 {
        clip-path: url(#clippath);
      }
    </style>
    <clipPath id="clippath">
      <circle class="cls-1" cx="207.51" cy="205.21" r="161.98"/>
    </clipPath>
  </defs>
  <g class="cls-3">
    <g>
      <g>
        <g>
          <path class="cls-2" d="M107.67,502.76c-37.07,0-74.41-11.7-106.07-35.89l15.01-19.63c65.83,50.32,160.34,37.7,210.66-28.13l19.63,15.01c-34.4,45-86.53,68.65-139.22,68.65ZM107.75,436.26c-22.97,0-46.11-7.25-65.74-22.25l15.01-19.63c36.68,28.04,89.35,21.01,117.39-15.68l19.63,15.01c-21.32,27.89-53.63,42.55-86.29,42.55Z"/>
          <path class="cls-2" d="M107.65,436.32c-23.65,0-46.53-7.7-65.64-22.31l15.01-19.63c36.68,28.04,89.35,21.01,117.39-15.68l19.63,15.01c-17.59,23.01-43.09,37.8-71.81,41.63-4.87.65-9.74.97-14.58.97ZM107.78,369.78c-9.14,0-17.99-2.98-25.37-8.62l15.01-19.63c3.66,2.79,8.19,3.99,12.73,3.39,4.56-.61,8.61-2.96,11.4-6.61l19.63,15c-6.8,8.9-16.65,14.61-27.75,16.1-1.88.25-3.77.37-5.64.37Z"/>
          <path class="cls-2" d="M107.78,369.78c-9.14,0-17.99-2.98-25.37-8.62l15.01-19.63c3.66,2.79,8.19,3.99,12.73,3.39,4.56-.61,8.61-2.96,11.4-6.61l19.63,15c-6.8,8.9-16.65,14.61-27.75,16.1-1.88.25-3.77.37-5.64.37Z"/>
        </g>
        <g>
          <path class="cls-2" d="M66.21,349.45l-8.54-5.21c-19.63-11.99-40.64-21.53-62.47-28.37l-21.19-6.65,16.82-14.5c11.38-9.81,21.77-20.82,30.87-32.73l19.63,15c-5.93,7.76-12.34,15.17-19.18,22.18,13.6,5.31,26.84,11.6,39.59,18.81,4.49-5.08,8.78-10.3,12.83-15.59l19.63,15.01c-6.51,8.52-13.62,16.85-21.11,24.79l-6.87,7.27Z"/>
          <path class="cls-2" d="M-248.28,351.31l-6.2-2.96c-15.09-7.21-29.46-16-42.73-26.15l15.01-19.63c10.14,7.75,21,14.63,32.36,20.5,16.11-9.81,32.94-18.05,50.26-24.68-20.44-5.97-39.8-15.73-57.22-29.05l15.01-19.63c31.89,24.38,71.36,34.89,111.15,29.56,39.79-5.31,75.12-25.8,99.5-57.69l19.63,15.01c-13.32,17.42-29.45,31.92-47.6,43.04,18.45,1.85,36.85,5.39,54.98,10.63,9.42-8.65,18.1-18.13,25.85-28.27l19.63,15c-10.14,13.26-21.7,25.53-34.37,36.45l-5.2,4.48-6.56-2.06c-80.25-25.17-166.88-13.6-237.7,31.74l-5.79,3.71Z"/>
          <path class="cls-2" d="M-261.91,454.6l-19.63-15.01c39.17-51.25,95.96-84.18,159.91-92.72,63.95-8.55,127.39,8.34,178.64,47.51l-15.01,19.63c-46.01-35.17-102.98-50.31-160.36-42.65-57.4,7.66-108.38,37.22-143.55,83.24ZM-314.77,414.19l-19.63-15.01c6.5-8.5,13.6-16.84,21.11-24.79,17.17-18.17,36.51-34.18,57.46-47.6,76.99-49.3,171.19-61.88,258.42-34.5,23.74,7.44,46.6,17.82,67.95,30.86,9.33,5.69,18.37,11.87,26.87,18.38l-15.01,19.63c-7.82-5.98-16.14-11.67-24.74-16.92-19.63-11.99-40.65-21.53-62.47-28.37-80.23-25.18-166.88-13.61-237.7,31.73-19.26,12.34-37.04,27.06-52.83,43.77-6.92,7.32-13.46,15-19.44,22.82Z"/>
          <path class="cls-2" d="M-209.05,495l-19.63-15.01c28.38-37.13,69.53-60.99,115.86-67.18,46.34-6.17,92.3,6.04,129.43,34.42l-15.01,19.63c-31.88-24.37-71.35-34.87-111.15-29.56-39.79,5.31-75.12,25.8-99.5,57.69ZM-261.91,454.6l-19.63-15.01c39.17-51.25,95.96-84.18,159.91-92.72,63.95-8.55,127.39,8.34,178.64,47.51l-15.01,19.63c-46.01-35.17-102.95-50.33-160.36-42.65-57.4,7.66-108.38,37.22-143.55,83.24Z"/>
          <path class="cls-2" d="M-156.19,535.41l-19.63-15.01c36.31-47.5,104.51-56.62,152.03-20.3l-15.01,19.63c-36.69-28.04-89.35-21.01-117.4,15.68ZM-209.05,495l-19.63-15.01c28.38-37.13,69.53-60.99,115.86-67.18,46.34-6.17,92.3,6.04,129.43,34.42l-15.01,19.63c-31.88-24.37-71.35-34.87-111.15-29.56-39.79,5.31-75.12,25.8-99.5,57.69Z"/>
        </g>
      </g>
      <g>
        <g>
          <path class="cls-2" d="M153.74,337.76l-8.54-5.21c-9.33-5.69-18.37-11.87-26.88-18.38l15.01-19.63c5.28,4.04,10.79,7.95,16.46,11.67,10.41-10.31,21.54-19.85,33.27-28.54-8.44-4.96-16.57-10.43-24.33-16.36l15.01-19.63c11.92,9.11,24.83,17.01,38.37,23.48l20.04,9.58-18.7,11.97c-19.26,12.33-37.03,27.06-52.83,43.77l-6.87,7.27Z"/>
          <path class="cls-2" d="M207.66,290.43l-6.2-2.96c-15.09-7.21-29.46-16-42.73-26.15l15.01-19.63c10.14,7.75,21,14.63,32.36,20.5,16.11-9.81,32.94-18.05,50.26-24.68-20.44-5.97-39.8-15.73-57.22-29.05l15.01-19.63c31.89,24.37,71.37,34.88,111.15,29.56,39.79-5.31,75.12-25.8,99.5-57.69l19.63,15.01c-13.32,17.42-29.45,31.92-47.6,43.04,18.46,1.85,36.85,5.39,54.98,10.63,9.42-8.64,18.1-18.13,25.85-28.27l19.63,15c-10.14,13.27-21.7,25.53-34.37,36.45l-5.2,4.48-6.56-2.06c-80.24-25.17-166.88-13.61-237.7,31.74l-5.78,3.7Z"/>
          <path class="cls-2" d="M305.2,244.35c-37.07,0-74.41-11.7-106.06-35.89l15.01-19.63c31.89,24.37,71.37,34.88,111.15,29.56,39.79-5.31,75.12-25.8,99.5-57.69l19.63,15.01c-34.4,45-86.53,68.65-139.22,68.65ZM305.27,177.85c-22.97,0-46.11-7.25-65.74-22.25l15.01-19.63c36.69,28.04,89.35,21.01,117.4-15.68l19.63,15.01c-21.32,27.89-53.63,42.55-86.29,42.55Z"/>
          <path class="cls-2" d="M305.18,177.91c-23.65,0-46.53-7.7-65.64-22.31l15.01-19.63c36.69,28.04,89.35,21.01,117.4-15.68l19.63,15.01c-17.59,23.01-43.09,37.8-71.81,41.64-4.87.65-9.74.97-14.58.97ZM305.36,111.34c-8.88,0-17.83-2.8-25.41-8.6l15.01-19.63c7.54,5.77,18.37,4.31,24.13-3.22l19.63,15.01c-8.24,10.78-20.73,16.44-33.35,16.44Z"/>
          <path class="cls-2" d="M305.36,111.34c-8.88,0-17.83-2.8-25.41-8.6l15.01-19.63c3.66,2.79,8.19,3.99,12.73,3.39,4.56-.61,8.61-2.95,11.4-6.61l19.63,15.01c-8.24,10.78-20.73,16.44-33.35,16.44Z"/>
          <path class="cls-2" d="M194.03,393.72l-19.63-15.01c39.18-51.25,95.97-84.18,159.91-92.72,63.95-8.55,127.39,8.33,178.64,47.51l-15.01,19.63c-46.01-35.17-102.97-50.3-160.36-42.65-57.41,7.66-108.38,37.22-143.56,83.24ZM141.18,353.31l-19.63-15.01c6.5-8.5,13.6-16.84,21.11-24.79,17.18-18.18,36.52-34.19,57.46-47.6,77-49.31,171.18-61.88,258.42-34.5,23.74,7.45,46.6,17.83,67.95,30.86,9.33,5.69,18.37,11.87,26.87,18.38l-15.01,19.63c-7.82-5.98-16.14-11.67-24.74-16.92-19.63-11.98-40.65-21.53-62.47-28.37-80.24-25.18-166.88-13.61-237.7,31.74-19.25,12.33-37.03,27.05-52.83,43.77-6.92,7.32-13.46,15-19.44,22.82Z"/>
          <path class="cls-2" d="M246.89,434.12l-19.63-15.01c28.38-37.13,69.53-60.99,115.86-67.18,46.34-6.17,92.29,6.04,129.43,34.42l-15.01,19.63c-65.83-50.32-160.33-37.71-210.65,28.13ZM194.03,393.72l-19.63-15.01c80.87-105.8,232.74-126.09,338.55-45.21l-15.01,19.63c-94.97-72.6-231.32-54.4-303.92,40.59Z"/>
          <path class="cls-2" d="M299.75,474.52l-19.63-15.01c36.31-47.5,104.51-56.62,152.03-20.3l-15.01,19.63c-36.69-28.04-89.35-21.01-117.4,15.68ZM246.89,434.12l-19.63-15.01c28.38-37.13,69.53-60.99,115.86-67.18,46.34-6.17,92.29,6.04,129.43,34.42l-15.01,19.63c-65.83-50.32-160.33-37.71-210.65,28.13Z"/>
        </g>
        <g>
          <path class="cls-2" d="M263.75,91.04l-8.54-5.21c-19.63-11.98-40.65-21.53-62.47-28.37l-21.19-6.65,16.82-14.5c11.38-9.81,21.76-20.82,30.87-32.73l19.63,15.01c-5.93,7.76-12.35,15.17-19.19,22.17,13.6,5.31,26.84,11.6,39.59,18.81,4.5-5.09,8.79-10.31,12.82-15.59l19.63,15.01c-6.49,8.49-13.59,16.83-21.1,24.78l-6.87,7.27Z"/>
          <path class="cls-2" d="M-50.75,92.9l-6.2-2.97c-15.09-7.21-29.46-16.01-42.73-26.15l15.01-19.63c10.14,7.75,21,14.63,32.36,20.5,16.11-9.81,32.94-18.04,50.26-24.68-20.44-5.97-39.8-15.73-57.23-29.05l15.01-19.63C-12.38,15.68,27.09,26.19,66.88,20.87c39.79-5.31,75.12-25.8,99.5-57.69l19.63,15.01c-13.32,17.42-29.45,31.92-47.6,43.05,18.46,1.85,36.84,5.38,54.98,10.62,9.42-8.64,18.1-18.13,25.85-28.27l19.63,15.01c-10.14,13.26-21.71,25.53-34.37,36.44l-5.2,4.48-6.56-2.05c-80.25-25.18-166.88-13.6-237.7,31.74l-5.79,3.71Z"/>
          <path class="cls-2" d="M46.79,46.82c-37.07,0-74.41-11.7-106.07-35.89l15.01-19.63C21.56,41.63,116.06,29.01,166.38-36.83l19.63,15.01C151.61,23.18,99.48,46.82,46.79,46.82ZM46.77-19.62C23.11-19.62.24-27.32-18.87-41.93L-3.87-61.55c36.68,28.05,89.35,21.01,117.4-15.68l19.63,15.01c-17.59,23.01-43.09,37.8-71.81,41.63-4.88.65-9.75.97-14.58.97Z"/>
          <path class="cls-2" d="M-64.38,196.19l-19.63-15.01C-44.83,129.93,11.96,97,75.91,88.46c63.96-8.55,127.39,8.34,178.64,47.51l-15.01,19.63c-46.01-35.17-102.97-50.33-160.36-42.65-57.41,7.66-108.38,37.22-143.56,83.23ZM-117.23,155.78l-19.63-15.01c6.5-8.51,13.61-16.85,21.11-24.79,17.18-18.17,36.51-34.19,57.47-47.61C18.71,19.09,112.91,6.52,200.13,33.88c23.73,7.45,46.59,17.83,67.95,30.86,9.31,5.69,18.35,11.87,26.87,18.37l-15,19.63c-7.84-5.99-16.16-11.68-24.74-16.92-19.63-11.98-40.65-21.53-62.47-28.37-80.25-25.18-166.88-13.6-237.7,31.74-19.27,12.33-37.04,27.06-52.84,43.77-6.91,7.31-13.45,14.99-19.43,22.82Z"/>
          <path class="cls-2" d="M-11.52,236.59l-19.63-15.01c58.6-76.66,168.63-91.34,245.29-32.75l-15.01,19.63c-65.83-50.33-160.34-37.71-210.66,28.13ZM-64.38,196.19l-19.63-15.01C-3.13,75.38,148.75,55.1,254.54,135.98l-15.01,19.63C144.56,82.99,8.22,101.21-64.38,196.19Z"/>
          <path class="cls-2" d="M41.33,276.99l-19.63-15.01c17.59-23.01,43.1-37.8,71.81-41.63,28.73-3.82,57.2,3.75,80.22,21.34l-15.01,19.63c-36.68-28.05-89.35-21.01-117.4,15.68ZM-11.52,236.59l-19.63-15.01c58.6-76.66,168.63-91.34,245.29-32.75l-15.01,19.63c-65.83-50.33-160.34-37.71-210.66,28.13Z"/>
          <path class="cls-2" d="M94.19,317.39l-19.63-15c6.8-8.9,16.65-14.61,27.75-16.1,11.11-1.47,22.12,1.45,31.01,8.25l-15.01,19.63c-3.66-2.79-8.18-3.99-12.73-3.39-4.56.61-8.61,2.96-11.4,6.61ZM41.33,276.99l-19.63-15.01c36.32-47.51,104.51-56.61,152.03-20.3l-15.01,19.63c-36.68-28.05-89.35-21.01-117.4,15.68Z"/>
          <path class="cls-2" d="M94.19,317.39l-19.63-15c6.8-8.9,16.65-14.61,27.75-16.1,11.11-1.47,22.12,1.45,31.01,8.25l-15.01,19.63c-3.66-2.79-8.18-3.99-12.73-3.39-4.56.61-8.61,2.96-11.4,6.61Z"/>
        </g>
      </g>
      <g>
        <g>
          <path class="cls-2" d="M351.27,79.35l-8.54-5.21c-9.31-5.69-18.35-11.87-26.87-18.37l15-19.63c5.29,4.04,10.8,7.95,16.47,11.67,10.41-10.3,21.53-19.85,33.27-28.54-8.43-4.96-16.57-10.43-24.33-16.37l15.01-19.63c11.92,9.12,24.83,17.02,38.37,23.48l20.04,9.58-18.71,11.98c-19.26,12.33-37.04,27.06-52.83,43.77l-6.87,7.27Z"/>
          <path class="cls-2" d="M405.19,32.02l-6.2-2.96c-15.08-7.21-29.45-16-42.73-26.15l15.01-19.63c10.14,7.76,21.01,14.63,32.36,20.5,16.11-9.81,32.94-18.05,50.26-24.68-20.44-5.97-39.8-15.73-57.23-29.05l15.01-19.63c31.89,24.37,71.37,34.9,111.15,29.56,39.79-5.31,75.12-25.8,99.5-57.69l19.63,15.01c-13.32,17.42-29.45,31.92-47.6,43.05,18.46,1.85,36.85,5.38,54.98,10.62,9.42-8.63,18.09-18.12,25.85-28.27l19.63,15.01c-10.15,13.28-21.71,25.54-34.37,36.44l-5.21,4.48-6.55-2.05c-80.25-25.18-166.88-13.6-237.7,31.74l-5.79,3.71Z"/>
          <path class="cls-2" d="M391.56,135.3l-19.63-15.01c39.18-51.25,95.97-84.18,159.91-92.71,63.95-8.55,127.39,8.34,178.64,47.51l-15.01,19.63c-46.01-35.17-102.98-50.33-160.36-42.65-57.41,7.66-108.38,37.22-143.56,83.23ZM338.71,94.9l-19.63-15.01c6.49-8.49,13.59-16.83,21.1-24.78,17.18-18.18,36.51-34.19,57.47-47.61,76.99-49.29,171.19-61.86,258.41-34.51,23.73,7.45,46.59,17.83,67.95,30.86,9.31,5.69,18.35,11.87,26.87,18.37l-15,19.63c-7.84-5.99-16.16-11.68-24.74-16.92-19.63-11.98-40.65-21.53-62.47-28.37-80.25-25.18-166.88-13.6-237.7,31.74-19.27,12.33-37.04,27.06-52.84,43.77-6.92,7.33-13.46,15.01-19.43,22.82Z"/>
          <path class="cls-2" d="M444.42,175.71l-19.63-15.01c58.6-76.66,168.63-91.34,245.29-32.75l-15.01,19.63c-65.84-50.33-160.34-37.7-210.66,28.13ZM391.56,135.3l-19.63-15.01C452.82,14.5,604.69-5.78,710.49,75.09l-15.01,19.63c-94.98-72.61-231.32-54.39-303.92,40.58Z"/>
        </g>
        <g>
          <path class="cls-2" d="M238.87,18.58l-19.63-15.01c36.32-47.5,104.51-56.62,152.03-20.3l-15.01,19.63c-36.67-28.03-89.35-21.01-117.4,15.68ZM186.01-21.82l-19.63-15.01c28.38-37.13,69.53-60.99,115.86-67.18,46.34-6.17,92.3,6.04,129.43,34.42l-15.01,19.63c-31.88-24.37-71.34-34.86-111.15-29.56-39.79,5.31-75.12,25.8-99.5,57.69Z"/>
          <path class="cls-2" d="M291.72,58.98l-19.63-15.01c14.04-18.36,40.4-21.88,58.77-7.84l-15.01,19.63c-7.54-5.77-18.38-4.32-24.13,3.22ZM238.87,18.58l-19.63-15.01c36.32-47.5,104.51-56.62,152.03-20.3l-15.01,19.63c-36.67-28.03-89.35-21.01-117.4,15.68Z"/>
          <path class="cls-2" d="M291.72,58.98l-19.63-15.01c14.04-18.36,40.4-21.88,58.77-7.84l-15.01,19.63c-3.66-2.79-8.19-3.98-12.73-3.39-4.56.61-8.61,2.95-11.4,6.61Z"/>
        </g>
      </g>
    </g>
  </g>
</svg>