<?xml version="1.0" encoding="UTF-8"?>
<svg id="Icons" xmlns="http://www.w3.org/2000/svg" viewBox="0 0 417.3 416">
  <defs>
    <style>
      .cls-1 {
        fill: #231f20;
      }
    </style>
  </defs>
  <path class="cls-1" d="M244.99,308.5h-29.24c-3.28,0-5.95-.82-8.01-2.46-2.06-1.64-3.61-3.68-4.64-6.12l-15.18-41.47h-84.2l-15.18,41.47c-.75,2.16-2.2,4.12-4.36,5.9s-4.83,2.67-8.01,2.67h-29.52L126.63,105.25h38.52l79.84,203.26ZM178.22,231.76l-24.74-67.61c-1.22-3-2.48-6.56-3.8-10.68-1.31-4.12-2.62-8.57-3.94-13.35-1.22,4.78-2.48,9.26-3.8,13.42-1.31,4.17-2.58,7.8-3.8,10.89l-24.6,67.33h64.66Z"/>
  <path class="cls-1" d="M257.21,184.39c16.59-15.18,36.55-22.77,59.88-22.77,8.43,0,15.98,1.38,22.63,4.15,6.65,2.76,12.27,6.61,16.87,11.53,4.59,4.92,8.08,10.8,10.47,17.64,2.39,6.84,3.58,14.34,3.58,22.49v91.09h-15.74c-3.28,0-5.81-.49-7.59-1.48-1.78-.98-3.19-2.97-4.22-5.97l-3.09-10.4c-3.66,3.28-7.22,6.16-10.68,8.64-3.47,2.48-7.08,4.57-10.82,6.26-3.75,1.69-7.75,2.97-12.02,3.87-4.27.89-8.97,1.33-14.13,1.33-6.09,0-11.71-.82-16.87-2.46-5.15-1.64-9.61-4.1-13.35-7.38-3.75-3.28-6.65-7.36-8.71-12.23-2.06-4.87-3.09-10.54-3.09-17.01,0-3.65.61-7.29,1.83-10.89,1.22-3.61,3.21-7.05,5.97-10.33,2.76-3.28,6.35-6.37,10.75-9.28,4.4-2.9,9.81-5.43,16.24-7.59,6.42-2.15,13.89-3.91,22.42-5.27,8.53-1.36,18.27-2.18,29.24-2.46v-8.43c0-9.65-2.06-16.8-6.18-21.44-4.12-4.64-10.08-6.96-17.85-6.96-5.62,0-10.28.66-13.99,1.97-3.7,1.31-6.96,2.79-9.77,4.43-2.81,1.64-5.37,3.12-7.66,4.43-2.3,1.31-4.85,1.97-7.66,1.97-2.44,0-4.5-.63-6.19-1.9-1.69-1.26-3.05-2.74-4.08-4.43l-6.18-11.1ZM336.77,246.94c-10.03.47-18.46,1.34-25.3,2.6-6.84,1.27-12.32,2.88-16.45,4.85-4.12,1.97-7.08,4.26-8.85,6.89-1.78,2.63-2.67,5.48-2.67,8.57,0,6.09,1.8,10.45,5.41,13.07,3.61,2.63,8.32,3.94,14.13,3.94,7.12,0,13.28-1.29,18.48-3.87,5.2-2.58,10.28-6.49,15.25-11.74v-24.32Z"/>
</svg>
