<?xml version="1.0" encoding="UTF-8"?>
<svg id="Icons" xmlns="http://www.w3.org/2000/svg" viewBox="0 0 417.3 416">
  <defs>
    <style>
      .cls-1 {
        fill: #231f20;
      }
    </style>
  </defs>
  <g>
    <path class="cls-1" d="M184.95,91.7v23.37h-32.07v103.7h-26.44v-103.7h-32.07v-23.37h90.57Z"/>
    <path class="cls-1" d="M322.92,107.53h-121.15c-3.71,0-6.71-3-6.71-6.71s3-6.71,6.71-6.71h121.15c3.71,0,6.71,3,6.71,6.71s-3,6.71-6.71,6.71Z"/>
    <path class="cls-1" d="M322.92,144.91h-121.15c-3.71,0-6.71-3-6.71-6.71s3-6.71,6.71-6.71h121.15c3.71,0,6.71,3,6.71,6.71s-3,6.71-6.71,6.71Z"/>
    <path class="cls-1" d="M322.92,182.29h-121.15c-3.71,0-6.71-3-6.71-6.71s3-6.71,6.71-6.71h121.15c3.71,0,6.71,3,6.71,6.71s-3,6.71-6.71,6.71Z"/>
    <path class="cls-1" d="M322.92,219.66h-121.15c-3.71,0-6.71-3-6.71-6.71s3-6.71,6.71-6.71h121.15c3.71,0,6.71,3,6.71,6.71s-3,6.71-6.71,6.71Z"/>
    <path class="cls-1" d="M322.92,257.04H99.04c-3.71,0-6.71-3-6.71-6.71s3-6.71,6.71-6.71h223.88c3.71,0,6.71,3,6.71,6.71s-3,6.71-6.71,6.71Z"/>
    <path class="cls-1" d="M322.92,294.41H99.04c-3.71,0-6.71-3-6.71-6.71s3-6.71,6.71-6.71h223.88c3.71,0,6.71,3,6.71,6.71s-3,6.71-6.71,6.71Z"/>
    <path class="cls-1" d="M322.92,328.67H99.04c-3.71,0-6.71-3-6.71-6.71s3-6.71,6.71-6.71h223.88c3.71,0,6.71,3,6.71,6.71s-3,6.71-6.71,6.71Z"/>
  </g>
  <path class="cls-1" d="M358.02,370H59.28c-6.98,0-12.63-5.65-12.63-12.63V58.63c0-6.98,5.65-12.63,12.63-12.63h298.74c6.98,0,12.63,5.65,12.63,12.63v298.74c0,6.98-5.65,12.63-12.63,12.63ZM71.91,344.74h273.48V71.26H71.91v273.48Z"/>
</svg>