<?xml version="1.0" encoding="UTF-8"?>
<svg id="Icons" xmlns="http://www.w3.org/2000/svg" viewBox="0 0 417.3 416">
  <defs>
    <style>
      .cls-1 {
        fill: #231f20;
      }
    </style>
  </defs>
  <path class="cls-1" d="M353.47,373.17c-4.32,0-8.59-1.22-12.39-3.65-6.51-4.15-55.69-36.71-62.32-41.13-4.15-2.77-9.47-2.92-12.58-1.64-7.06,2.91-79.19,29.18-87.9,32.34-17.72,6.76-29.28,7.25-42.62,1.84-5.89-2.39-74.03-30.66-82.54-34.19-8.91-2.74-22.17-13.53-22.17-39.23V117.78c0-.08.13-8.7,0-29.65-.07-11.28,4.59-20.74,13.13-26.64,9.4-6.5,22.25-7.58,34.37-2.92,11.95,4.6,48.22,22.69,63.79,31.48,10.62,5.99,17.78,5.74,19.59,4.67,5.7-3.35,38.62-20.3,70.06-36.43l6.37-3.27c14.47-7.44,28.26-7.77,43.38-1.03,3.55,1.58,13.11,5.4,23.22,9.44,19.67,7.86,41.97,16.76,50.14,21,11.17,5.78,31.95,16.52,31.33,43.81-.24,10.54-2.86,78.5-5.18,138.46-1.57,40.81-3.06,79.36-3.1,81.99,0,8.8-5,17.06-13.04,21.47-3.68,2.02-7.64,3.02-11.56,3.02ZM270.49,298.89c8.14,0,16.43,2.37,23.3,6.95,6.17,4.11,43.48,28.8,57.32,37.88.34-9.61,1.26-33.79,2.97-78.08,2.2-56.89,4.93-127.7,5.16-138.03.2-8.94-3.78-12.44-16.69-19.12-7.01-3.63-30.55-13.03-47.75-19.9-11.26-4.5-20.16-8.05-24.2-9.85-7.51-3.35-12.92-3.25-19.96.37l-6.39,3.28c-17.2,8.83-62.89,32.27-68.69,35.68-12.07,7.1-29.08,5.48-46.65-4.43-14.2-8.02-49.59-25.7-60.21-29.79-4.12-1.59-7.66-1.15-9.22-.08-.36.25-1.46,1.01-1.44,4.18.13,20.29.02,29.03,0,30.14v169.43c0,8.76,2.28,12.44,3.43,13.38l.11.02,1.14.47c.77.32,77.06,31.97,83.11,34.42,5.26,2.13,9.42,3.06,22.87-2.08l.2-.08c32.22-11.73,81.97-29.92,86.94-31.97,4.57-1.88,9.57-2.8,14.63-2.8Z"/>
  <path class="cls-1" d="M279.22,189.57l-94.44,38.83c-2.46,1.01-3.64,3.81-2.63,6.27.45,1.11,1.3,2.01,2.39,2.52l36.13,17.25,17.31,36.13c.8,1.68,2.49,2.75,4.34,2.75h.14c1.9-.05,3.59-1.22,4.32-2.98l38.77-94.45c1.05-2.44-.07-5.27-2.51-6.32-1.22-.52-2.6-.52-3.81,0Z"/>
  <path class="cls-1" d="M136.44,240.86l94.44-38.83c2.46-1.01,3.64-3.81,2.63-6.27-.45-1.11-1.3-2.01-2.39-2.52l-36.13-17.25-17.31-36.13c-.8-1.68-2.49-2.75-4.34-2.75h-.14c-1.9.05-3.59,1.22-4.32,2.98l-38.77,94.45c-1.05,2.44.07,5.27,2.51,6.32,1.22.52,2.6.52,3.81,0Z"/>
</svg>