<?xml version="1.0" encoding="UTF-8"?>
<svg id="Icons" xmlns="http://www.w3.org/2000/svg" viewBox="0 0 417.3 416">
  <defs>
    <style>
      .cls-1 {
        fill: #231f20;
      }
    </style>
  </defs>
  <path class="cls-1" d="M71.79,70.38c0,12.98.2,24.79-.06,36.58-.22,9.78-8.87,16.54-16.62,12.35-3.7-2-7.61-7.38-7.83-11.43-.89-16.55-.67-33.19-.3-49.78.18-7.96,5.16-12.34,13.24-12.43,15.85-.18,31.7-.16,47.55-.01,8.33.08,13.86,5.54,13.63,12.89-.22,7.03-5.47,11.67-13.87,11.78-11.53.16-23.06.04-35.73.04Z"/>
  <path class="cls-1" d="M71.77,345.69c11.01,0,20.78,0,30.55,0,2.26,0,4.54-.14,6.78.06,7.54.68,12.5,5.87,12.27,12.67-.22,6.42-5.21,11.73-12.32,11.86-16.59.29-33.2.3-49.79,0-7.47-.13-12.09-4.71-12.28-12.6-.4-16.59-.34-33.19-.02-49.78.14-7.33,6.06-12.69,12.53-12.5,6.44.19,12,5.68,12.19,13.02.31,12.04.08,24.09.08,37.27Z"/>
  <path class="cls-1" d="M345.54,70.35c-9.74,0-18.74.01-27.73,0-3.52,0-7.07.19-10.55-.17-7.07-.74-11.61-5.96-11.38-12.63.22-6.06,5.12-11.64,11.61-11.77,17.1-.32,34.22-.43,51.31.04,7.33.2,11.39,5.42,11.51,12.57.29,16.59.36,33.2-.07,49.79-.2,7.59-5.99,12.54-12.62,12.28-6.63-.26-11.88-5.62-12.02-13.05-.24-12.02-.06-24.04-.06-37.05Z"/>
  <path class="cls-1" d="M345.53,345.66c0-12.66-.06-23.96.02-35.26.07-8.8,5.28-14.91,12.53-14.96,6.99-.04,12.2,5.61,12.35,14.31.26,15.34.31,30.69.06,46.03-.16,10.13-4.96,14.58-15.09,14.64-15.09.08-30.18.09-45.27-.03-8.59-.07-14.17-5.05-14.21-12.29-.04-7.3,5.31-12.22,14.11-12.38,11.51-.21,23.04-.05,35.5-.05Z"/>
  <path class="cls-1" d="M277.44,204.28l-104.79-60.5c-4.26-2.46-9.59.62-9.59,5.54v121.01c0,4.92,5.33,8,9.59,5.54l104.79-60.5c4.26-2.46,4.26-8.61,0-11.07Z"/>
</svg>