<?xml version="1.0" encoding="UTF-8"?>
<svg id="Icons" xmlns="http://www.w3.org/2000/svg" viewBox="0 0 417.3 416">
  <defs>
    <style>
      .cls-1 {
        fill: #231f20;
      }
    </style>
  </defs>
  <path class="cls-1" d="M46.65,278.81s53.9,2.46,60.65,58.41l33.57-95.56-94.23,37.15Z"/>
  <path class="cls-1" d="M150.79,127.85l-26.69,67.85,136.68,53.76,26.69-67.85-136.68-53.76ZM192.55,180.91c-1.72,6.01-6.01,11.22-12.18,13.91-10.97,4.78-23.73-.24-28.51-11.21-2.69-6.17-2.27-12.92.56-18.48,1.72-6.01,6.01-11.22,12.18-13.91,10.97-4.78,23.73.24,28.51,11.21,2.69,6.17,2.27,12.92-.56,18.48ZM260.46,207.62c-1.72,6.01-6.01,11.23-12.18,13.91-10.97,4.78-23.73-.24-28.51-11.21-2.69-6.17-2.27-12.92.56-18.48,1.72-6.01,6.01-11.23,12.18-13.91,10.97-4.78,23.73.24,28.51,11.21,2.69,6.17,2.27,12.92-.56,18.48Z"/>
  <path class="cls-1" d="M233.97,75.02l-26.69,67.85,136.68,53.76,26.69-67.85-136.68-53.76ZM275.73,128.09c-1.72,6.01-6.01,11.22-12.18,13.91-10.97,4.78-23.73-.24-28.51-11.21-2.69-6.17-2.27-12.92.56-18.48,1.72-6.01,6.01-11.22,12.18-13.91,10.97-4.78,23.73.24,28.51,11.21,2.69,6.17,2.27,12.92-.56,18.48ZM343.64,154.8c-1.72,6.01-6.01,11.23-12.18,13.91-10.97,4.78-23.73-.24-28.51-11.21-2.69-6.17-2.27-12.92.56-18.48,1.72-6.01,6.01-11.22,12.18-13.91,10.97-4.78,23.73.24,28.51,11.21,2.69,6.17,2.27,12.92-.56,18.48Z"/>
  <path class="cls-1" d="M164.14,220.14l-26.21,68.04,137.05,52.8,26.21-68.04-137.05-52.8ZM204.99,277.48c-1.68,6.02-5.93,11.27-12.08,14-10.93,4.85-23.73-.08-28.58-11.01-2.73-6.15-2.36-12.9.43-18.49,1.68-6.02,5.93-11.27,12.08-14,10.93-4.85,23.73.08,28.58,11.01,2.73,6.16,2.36,12.9-.43,18.49ZM273.08,303.71c-1.68,6.02-5.93,11.27-12.08,14-10.93,4.85-23.73-.08-28.58-11.01-2.73-6.15-2.36-12.9.43-18.49,1.68-6.02,5.93-11.27,12.08-14,10.93-4.85,23.73.08,28.58,11.01,2.73,6.16,2.36,12.9-.43,18.49Z"/>
</svg>