<?xml version="1.0" encoding="UTF-8"?>
<svg id="Icons" xmlns="http://www.w3.org/2000/svg" viewBox="0 0 417.3 416">
  <defs>
    <style>
      .cls-1 {
        fill: #231f20;
      }
    </style>
  </defs>
  <path class="cls-1" d="M130.16,367.87c-.35,0-.71-.02-1.07-.07-4.84-.58-8.3-4.98-7.72-9.83L158.16,51.65c.58-4.84,5-8.31,9.83-7.72,4.84.58,8.3,4.98,7.72,9.83l-36.78,306.33c-.54,4.49-4.35,7.78-8.76,7.78Z"/>
  <path class="cls-1" d="M276.92,367.87c-4.45,0-8.28-3.35-8.77-7.87L234.58,53.67c-.53-4.85,2.97-9.21,7.82-9.74,4.85-.55,9.21,2.97,9.75,7.82l33.56,306.33c.53,4.85-2.97,9.21-7.82,9.74-.33.04-.65.05-.97.05Z"/>
  <path class="cls-1" d="M276.93,367.87c-2.45,0-4.89-1.01-6.63-2.99l-129.43-146.85c-3.23-3.66-2.87-9.24.79-12.47,3.66-3.23,9.24-2.87,12.47.79l129.43,146.85c3.23,3.66,2.87,9.24-.79,12.47-1.68,1.48-3.76,2.21-5.84,2.21Z"/>
  <path class="cls-1" d="M130.14,367.87c-2.13,0-4.27-.77-5.97-2.32-3.6-3.3-3.84-8.89-.54-12.48l131.43-143.34c3.3-3.6,8.89-3.84,12.48-.54,3.6,3.3,3.84,8.89.54,12.48l-131.43,143.34c-1.74,1.9-4.12,2.86-6.51,2.86Z"/>
  <path class="cls-1" d="M147.49,221.02c-2.16,0-4.32-.78-6.02-2.37-3.57-3.33-3.76-8.92-.43-12.49l100.85-108.12c3.33-3.57,8.92-3.76,12.49-.43,3.57,3.33,3.76,8.92.43,12.49l-100.85,108.12c-1.74,1.86-4.1,2.81-6.46,2.81Z"/>
  <path class="cls-1" d="M261.72,223.5c-2.34,0-4.67-.92-6.4-2.75l-104.1-109.48c-3.36-3.54-3.22-9.13.31-12.49,3.54-3.36,9.13-3.22,12.49.31l104.1,109.48c3.36,3.54,3.22,9.13-.31,12.49-1.71,1.63-3.9,2.43-6.09,2.43Z"/>
  <path class="cls-1" d="M243.36,61.54h-76.43c-4.88,0-8.84-3.95-8.84-8.83s3.96-8.83,8.84-8.83h76.43c4.88,0,8.84,3.95,8.84,8.83s-3.96,8.83-8.84,8.83Z"/>
  <path class="cls-1" d="M95.26,114.01c-2.72,0-5.41-1.25-7.14-3.62-2.88-3.94-2.03-9.47,1.91-12.35l71.67-52.47c3.94-2.89,9.46-2.03,12.35,1.91,2.88,3.94,2.03,9.47-1.91,12.35l-71.67,52.47c-1.57,1.15-3.4,1.71-5.21,1.71Z"/>
  <path class="cls-1" d="M322.04,114.01H95.26c-4.88,0-8.84-3.95-8.84-8.83s3.96-8.83,8.84-8.83h226.79c4.88,0,8.84,3.95,8.84,8.83s-3.96,8.83-8.84,8.83Z"/>
  <path class="cls-1" d="M322.04,114.01c-1.68,0-3.39-.48-4.89-1.49l-78.68-52.47c-4.06-2.71-5.16-8.19-2.45-12.25,2.71-4.06,8.19-5.15,12.25-2.45l78.68,52.47c4.06,2.71,5.16,8.19,2.45,12.25-1.7,2.55-4.5,3.94-7.36,3.94Z"/>
</svg>