<?xml version="1.0" encoding="UTF-8"?>
<svg id="Icons" xmlns="http://www.w3.org/2000/svg" viewBox="0 0 417.3 416">
  <defs>
    <style>
      .cls-1, .cls-2 {
        fill: #231f20;
      }

      .cls-2 {
        fill-rule: evenodd;
      }
    </style>
  </defs>
  <path class="cls-1" d="M370.65,90.18c0-24.4-19.78-44.18-44.18-44.18h-58.91c-8.13,0-14.73,6.59-14.73,14.73s6.59,14.73,14.73,14.73h58.91c8.13,0,14.73,6.59,14.73,14.73v58.91c0,8.13,6.59,14.73,14.73,14.73s14.73-6.59,14.73-14.73v-58.91Z"/>
  <path class="cls-1" d="M370.65,266.91c0-8.13-6.59-14.73-14.73-14.73s-14.73,6.59-14.73,14.73v58.91c0,8.13-6.59,14.73-14.73,14.73h-58.91c-8.13,0-14.73,6.59-14.73,14.73s6.59,14.73,14.73,14.73h58.91c24.4,0,44.18-19.78,44.18-44.18v-58.91Z"/>
  <path class="cls-1" d="M90.83,340.55c-8.13,0-14.73-6.59-14.73-14.73v-58.91c0-8.13-6.59-14.73-14.73-14.73s-14.73,6.59-14.73,14.73v58.91c0,24.4,19.78,44.18,44.18,44.18h58.91c8.13,0,14.73-6.59,14.73-14.73s-6.59-14.73-14.73-14.73h-58.91Z"/>
  <path class="cls-1" d="M46.65,149.09c0,8.13,6.59,14.73,14.73,14.73s14.73-6.59,14.73-14.73v-58.91c0-8.13,6.59-14.73,14.73-14.73h58.91c8.13,0,14.73-6.59,14.73-14.73s-6.59-14.73-14.73-14.73h-58.91c-24.4,0-44.18,19.78-44.18,44.18v58.91Z"/>
  <path class="cls-2" d="M193.92,119.64c0-8.13-6.59-14.73-14.73-14.73h-58.91c-8.13,0-14.73,6.59-14.73,14.73v58.91c0,8.13,6.59,14.73,14.73,14.73h58.91c8.13,0,14.73-6.59,14.73-14.73v-58.91ZM164.47,141.73c0-4.07-3.3-7.36-7.36-7.36h-14.73c-4.07,0-7.36,3.3-7.36,7.36v14.73c0,4.07,3.3,7.36,7.36,7.36h14.73c4.07,0,7.36-3.3,7.36-7.36v-14.73Z"/>
  <path class="cls-2" d="M297.01,222.73c8.13,0,14.73,6.59,14.73,14.73v58.91c0,8.13-6.59,14.73-14.73,14.73h-58.91c-8.13,0-14.73-6.59-14.73-14.73v-58.91c0-8.13,6.59-14.73,14.73-14.73h58.91ZM252.83,259.55c0-4.07,3.3-7.36,7.36-7.36h14.73c4.07,0,7.36,3.3,7.36,7.36v14.73c0,4.07-3.3,7.36-7.36,7.36h-14.73c-4.07,0-7.36-3.3-7.36-7.36v-14.73Z"/>
  <path class="cls-1" d="M238.1,104.91c-8.13,0-14.73,6.59-14.73,14.73s6.59,14.73,14.73,14.73h36.82c4.07,0,7.36,3.3,7.36,7.36v36.82c0,8.13,6.59,14.73,14.73,14.73s14.73-6.59,14.73-14.73v-58.91c0-8.13-6.59-14.73-14.73-14.73h-58.91Z"/>
  <path class="cls-1" d="M238.1,149.09c-8.13,0-14.73,6.59-14.73,14.73v14.73c0,8.13,6.59,14.73,14.73,14.73s14.73-6.59,14.73-14.73v-14.73c0-8.13-6.59-14.73-14.73-14.73Z"/>
  <path class="cls-1" d="M120.29,222.73c-8.13,0-14.73,6.59-14.73,14.73v29.45c0,8.13,6.59,14.73,14.73,14.73s14.73-6.59,14.73-14.73v-7.36c0-4.07,3.3-7.36,7.36-7.36h36.82c8.13,0,14.73-6.59,14.73-14.73s-6.59-14.73-14.73-14.73h-58.91Z"/>
  <path class="cls-1" d="M179.2,281.64c-8.13,0-14.73,6.59-14.73,14.73s6.59,14.73,14.73,14.73,14.73-6.59,14.73-14.73-6.59-14.73-14.73-14.73Z"/>
</svg>