<?xml version="1.0" encoding="UTF-8"?>
<svg id="Icons" xmlns="http://www.w3.org/2000/svg" viewBox="0 0 417.3 416">
  <defs>
    <style>
      .cls-1 {
        fill: #231f20;
      }
    </style>
  </defs>
  <g>
    <path class="cls-1" d="M303.02,370c-5.48,0-10.58-3.46-12.41-8.95l-68.42-204.96c-.09-.28-.18-.56-.25-.85-2.3-8.85-9.24-9.54-11.31-9.54s-9.01.69-11.31,9.54c-.07.28-.15.55-.24.82l-67.91,204.96c-2.27,6.86-9.68,10.58-16.54,8.31-6.86-2.27-10.58-9.68-8.31-16.54l67.79-204.59c4.66-17.17,19.28-28.67,36.51-28.67s31.84,11.49,36.51,28.66l68.3,204.58c2.29,6.85-1.41,14.27-8.27,16.56-1.37.46-2.77.68-4.15.68Z"/>
    <path class="cls-1" d="M208.78,144.19c-24.29,0-44.05-19.77-44.05-44.08s19.76-44.08,44.05-44.08,44.05,19.77,44.05,44.08-19.76,44.08-44.05,44.08ZM208.78,82.2c-9.86,0-17.88,8.03-17.88,17.91s8.02,17.91,17.88,17.91,17.88-8.03,17.88-17.91-8.02-17.91-17.88-17.91Z"/>
    <g>
      <path class="cls-1" d="M150.33,133.54c-2.03,0-4.06-.7-5.71-2.13-4.68-4.06-15.48-15.29-14.68-31.88.69-14.27,9.5-23.93,14.69-28.42,3.64-3.15,9.15-2.75,12.31.89s2.75,9.15-.89,12.31c-2.48,2.14-8.28,8-8.67,16.06-.43,8.95,5.93,15.48,8.68,17.87,3.64,3.16,4.03,8.67.87,12.31-1.73,1.99-4.15,3.01-6.59,3.01Z"/>
      <path class="cls-1" d="M129.61,155.25c-2.03,0-4.06-.7-5.71-2.13-8.2-7.12-27.14-26.77-25.75-55.48,1.19-24.72,16.65-41.63,25.76-49.52,3.64-3.15,9.15-2.75,12.3.89,3.15,3.64,2.75,9.15-.89,12.31-5.63,4.87-18.84,18.25-19.75,37.16-1.02,21.07,13.48,36.01,19.76,41.46,3.64,3.16,4.03,8.67.87,12.31-1.73,1.99-4.15,3.01-6.59,3.01Z"/>
    </g>
    <g>
      <path class="cls-1" d="M266.97,132.27c-2.45,0-4.88-1.02-6.6-3.02-3.15-3.64-2.75-9.15.89-12.31,2.48-2.14,8.28-8,8.67-16.06.43-8.95-5.93-15.48-8.68-17.87-3.64-3.16-4.03-8.67-.87-12.31,3.16-3.64,8.67-4.03,12.31-.87,4.68,4.06,15.48,15.29,14.68,31.88-.69,14.27-9.5,23.93-14.69,28.42-1.65,1.43-3.68,2.12-5.7,2.12Z"/>
      <path class="cls-1" d="M287.69,155.25c-2.45,0-4.88-1.02-6.6-3.02-3.15-3.64-2.75-9.15.89-12.31,5.63-4.87,18.84-18.25,19.75-37.16,1.01-21.07-13.48-36.01-19.76-41.46-3.64-3.16-4.03-8.67-.87-12.31,3.16-3.64,8.67-4.03,12.31-.87,8.2,7.12,27.14,26.77,25.75,55.48-1.19,24.72-16.65,41.63-25.76,49.52-1.65,1.43-3.68,2.13-5.7,2.13Z"/>
    </g>
  </g>
  <path class="cls-1" d="M136.83,329.43c-3.78,0-7.26-2.47-8.37-6.29-1.35-4.63,1.31-9.47,5.94-10.82l139.57-40.65c4.63-1.35,9.47,1.31,10.82,5.94,1.35,4.63-1.31,9.47-5.94,10.82l-139.57,40.65c-.81.24-1.64.35-2.44.35Z"/>
  <path class="cls-1" d="M262.82,243.69c-1.05,0-2.12-.19-3.15-.59l-88.1-34.17c-4.49-1.74-6.72-6.8-4.98-11.29s6.8-6.72,11.29-4.98l88.1,34.17c4.49,1.74,6.72,6.8,4.98,11.29-1.34,3.46-4.64,5.57-8.14,5.57Z"/>
</svg>