<?xml version="1.0" encoding="UTF-8"?>
<svg id="Icons" xmlns="http://www.w3.org/2000/svg" viewBox="0 0 417.3 416">
  <defs>
    <style>
      .cls-1 {
        fill: #231f20;
      }
    </style>
  </defs>
  <path class="cls-1" d="M237.96,232.7c0,10.05,0,19.05,0,28.05,0,16.91.05,33.82-.02,50.73-.06,12.77-4.09,17.81-13.98,17.82-13.35,0-26.7.02-40.05,0-7.95-.02-11.73-4.18-12.78-14.08-.2-1.85-.16-3.75-.16-5.62,0-23.11,0-46.22,0-69.34,0-2.22,0-4.44,0-7.56-3,0-5.61.08-8.22-.01-9.22-.32-13.49-5.9-13.5-17.57-.01-24.43.67-48.9-.23-73.27-.65-17.63,11.07-29.27,20.39-31.59,16.8-4.18,33.86-4.09,50.89-2.77,5.89.46,11.78,1.31,17.61,2.44,7.34,1.43,13.6,5.96,17.62,13.78,2.21,4.3,3.89,9.89,3.97,14.94.39,25.55.19,51.11.18,76.66,0,11.35-4.26,16.95-13.21,17.37-2.63.12-5.26.02-8.5.02Z"/>
  <circle class="cls-1" cx="205.17" cy="79.94" r="33.94"/>
  <path class="cls-1" d="M357.68,370H59.62c-5.25,0-9.95-3.24-11.82-8.14-1.87-4.9-.52-10.45,3.4-13.95l91.81-81.93c2.32-2.07,5.32-3.21,8.42-3.21h99.5c2.79,0,5.49.92,7.7,2.62l106.74,81.93c4.3,3.3,6.02,8.97,4.28,14.1s-6.56,8.58-11.98,8.58ZM92.8,344.7h227.61l-73.78-56.63h-90.38l-63.45,56.63Z"/>
</svg>