<?xml version="1.0" encoding="UTF-8"?>
<svg id="Icons" xmlns="http://www.w3.org/2000/svg" viewBox="0 0 417.3 416">
  <defs>
    <style>
      .cls-1 {
        fill: #231f20;
      }
    </style>
  </defs>
  <path class="cls-1" d="M361.31,145.56c-10-16.07-19.54-32.5-30.64-47.78-3.77-5.19-11.66-10.38-17.72-10.45-11.88-.12-20.74-.29-20.74-.29v-25.87h-60.74v25.66c-14.6-.03-29.2-.03-43.8-.01v-25.65h-60.74v25.87h.16c-7.59.04-15.17.09-22.76.14-5.14.03-12.27,3.18-15.04,7.23-13.18,19.29-26.39,38.75-37.28,59.37-12.86,24.36-1.51,52.93,22.06,63.17,0,10.39-.07,88.92.01,116,.05,16.23,5.88,21.85,22.39,21.86,74.78.02,149.57.03,224.35,0,17.28,0,22.8-5.39,22.86-22.51.09-25.77-.51-100.1-.63-114.77,4.52-1.87,8.77-4.53,12.58-7.99,17.68-16.04,19.95-41.02,5.66-63.97ZM107.1,286.96v-68.18c8.56-2.66,16.37-7.67,23.57-14.18,30.9,21.78,48.67,21.8,78.23.02,28.98,21.82,44.31,21.8,78.13.27,1.44,1.06,2.95,2.13,4.42,3.27,5.82,4.52,12,7.84,18.28,9.94v68.86H107.1Z"/>
</svg>