<?xml version="1.0" encoding="UTF-8"?>
<svg id="Icons" xmlns="http://www.w3.org/2000/svg" viewBox="0 0 417.3 416">
  <defs>
    <style>
      .cls-1 {
        fill: #231f20;
      }
    </style>
  </defs>
  <path class="cls-1" d="M304.79,370H112.51c-36.32,0-65.86-29.54-65.86-65.86V111.86c0-36.32,29.54-65.86,65.86-65.86h192.28c36.32,0,65.86,29.54,65.86,65.86v192.28c0,36.32-29.54,65.86-65.86,65.86ZM112.51,72.24c-21.85,0-39.62,17.77-39.62,39.62v192.28c0,21.85,17.77,39.62,39.62,39.62h192.28c21.85,0,39.62-17.77,39.62-39.62V111.86c0-21.85-17.77-39.62-39.62-39.62H112.51Z"/>
  <g>
    <circle class="cls-1" cx="132.24" cy="134.42" r="24.06"/>
    <path class="cls-1" d="M292.22,127.52h-110.18c-4.89,0-8.86-3.97-8.86-8.86s3.97-8.86,8.86-8.86h110.18c4.89,0,8.86,3.97,8.86,8.86s-3.97,8.86-8.86,8.86Z"/>
    <path class="cls-1" d="M292.22,153.65h-110.18c-4.89,0-8.86-3.97-8.86-8.86s3.97-8.86,8.86-8.86h110.18c4.89,0,8.86,3.97,8.86,8.86s-3.97,8.86-8.86,8.86Z"/>
    <circle class="cls-1" cx="132.24" cy="212.8" r="24.06"/>
    <path class="cls-1" d="M292.22,205.9h-110.18c-4.89,0-8.86-3.97-8.86-8.86s3.97-8.86,8.86-8.86h110.18c4.89,0,8.86,3.97,8.86,8.86s-3.97,8.86-8.86,8.86Z"/>
    <path class="cls-1" d="M292.22,232.03h-110.18c-4.89,0-8.86-3.97-8.86-8.86s3.97-8.86,8.86-8.86h110.18c4.89,0,8.86,3.97,8.86,8.86s-3.97,8.86-8.86,8.86Z"/>
    <circle class="cls-1" cx="132.24" cy="291.19" r="24.06"/>
    <path class="cls-1" d="M292.22,284.29h-110.18c-4.89,0-8.86-3.97-8.86-8.86s3.97-8.86,8.86-8.86h110.18c4.89,0,8.86,3.97,8.86,8.86s-3.97,8.86-8.86,8.86Z"/>
    <path class="cls-1" d="M292.22,310.42h-110.18c-4.89,0-8.86-3.97-8.86-8.86s3.97-8.86,8.86-8.86h110.18c4.89,0,8.86,3.97,8.86,8.86s-3.97,8.86-8.86,8.86Z"/>
  </g>
</svg>