<?xml version="1.0" encoding="UTF-8"?>
<svg id="Icons" xmlns="http://www.w3.org/2000/svg" viewBox="0 0 417.3 416">
  <defs>
    <style>
      .cls-1 {
        fill: #231f20;
      }
    </style>
  </defs>
  <path class="cls-1" d="M318.16,370H127.8c-7.55,0-13.66-6.12-13.66-13.66s6.12-13.66,13.66-13.66h190.36c13.41,0,24.32-10.91,24.32-24.32V97.65c0-13.41-10.91-24.32-24.32-24.32h-152.38c-13.41,0-24.32,10.91-24.32,24.32v139.5c0,7.55-6.12,13.66-13.66,13.66s-13.66-6.12-13.66-13.66V97.65c0-28.48,23.17-51.65,51.65-51.65h152.38c28.48,0,51.65,23.17,51.65,51.65v220.71c0,28.48-23.17,51.65-51.65,51.65Z"/>
  <path class="cls-1" d="M293.86,138.1h-98.9c-4.19,0-7.6-3.4-7.6-7.6s3.4-7.6,7.6-7.6h98.9c4.19,0,7.6,3.4,7.6,7.6s-3.4,7.6-7.6,7.6Z"/>
  <path class="cls-1" d="M293.86,189.48h-98.9c-4.19,0-7.6-3.4-7.6-7.6s3.4-7.6,7.6-7.6h98.9c4.19,0,7.6,3.4,7.6,7.6s-3.4,7.6-7.6,7.6Z"/>
  <path class="cls-1" d="M293.86,240.85h-98.9c-4.19,0-7.6-3.4-7.6-7.6s3.4-7.6,7.6-7.6h98.9c4.19,0,7.6,3.4,7.6,7.6s-3.4,7.6-7.6,7.6Z"/>
  <path class="cls-1" d="M293.86,292.23h-98.9c-4.19,0-7.6-3.4-7.6-7.6s3.4-7.6,7.6-7.6h98.9c4.19,0,7.6,3.4,7.6,7.6s-3.4,7.6-7.6,7.6Z"/>
  <path class="cls-1" d="M120.75,370c-40.39,0-73.26-32.86-73.26-73.26s32.86-73.26,73.26-73.26,73.26,32.86,73.26,73.26-32.86,73.26-73.26,73.26ZM120.75,250.81c-25.33,0-45.93,20.6-45.93,45.93s20.6,45.93,45.93,45.93,45.93-20.6,45.93-45.93-20.6-45.93-45.93-45.93Z"/>
  <path class="cls-1" d="M148.9,307.12h-31.06c-4.19,0-7.6-3.4-7.6-7.6v-30.83c0-4.19,3.4-7.6,7.6-7.6s7.6,3.4,7.6,7.6v23.23h23.47c4.19,0,7.6,3.4,7.6,7.6s-3.4,7.6-7.6,7.6Z"/>
</svg>