<?xml version="1.0" encoding="UTF-8"?>
<svg id="Icons" xmlns="http://www.w3.org/2000/svg" viewBox="0 0 417.3 416">
  <defs>
    <style>
      .cls-1 {
        fill: #231f20;
      }
    </style>
  </defs>
  <path class="cls-1" d="M370.65,240.72h-45.65v-76.13h45.65v-23.77h-46.11v-17.74h-23.08v17.72h-46.32v-17.77h-23.34v17.78h-46.3v-17.79h-23.16v17.77h-46.28v-17.66h-23.77v18.27h-45.64v22.96h45.6v76.56h-45.48v23.23h46.09v28.77h23.36v-28.75h46.26v28.76h23.14v-28.77h46.29v28.78h23.32v-28.67h46.71v28.69h22.86v-28.7h45.85v-23.55ZM162.1,240.47h-45.63v-75.83h45.63v75.83ZM231.5,240.53h-45.58v-75.93h45.58v75.93ZM301.33,240.5h-45.75v-75.88h45.75v75.88Z"/>
</svg>