<?xml version="1.0" encoding="UTF-8"?>
<svg id="Icons" xmlns="http://www.w3.org/2000/svg" viewBox="0 0 417.3 416">
  <defs>
    <style>
      .cls-1 {
        fill: #231f20;
      }
    </style>
  </defs>
  <path class="cls-1" d="M181.17,83.27c-65.77-7.94-85.05-2.53-134.52-4.59v17.57c25.32,1.08,47.7,4.96,56.83,12.45,5.48,4.49,8.71,13.96,10.54,20.46,2.84,10.07,2.46,12.17,3.87,22.53,1.36,10,2.35,20.06,3.11,30.13.4,5.24,1.59,11.43.57,16.82-.4,2.13-1.15,4.15-2.43,5.93-6.2,8.62-13.87,8.1-27.38,8.16-14.64.07-30.27-.23-45.1-2.81v79.19c91.71.3,162,.01,252.8.01,51.29-6.64,71.27-27.15,71.2-47.38-.27-72.49-123.71-150.53-189.48-158.47ZM325.92,199.1c-23.53,14.93-134.47,19.46-157.92.22-5.48-4.49-8.71-13.96-10.54-20.46-2.84-10.07-2.46-12.17-3.87-22.53-1.36-10-2.35-20.06-3.11-30.13-.4-5.24-1.59-11.43-.57-16.82.4-2.13,1.15-4.15,2.43-5.93,6.2-8.62,17.74-8.17,27.35-7.21,24.37,2.42,46.98,11.02,69.08,23.66,24.46,13.99,44.53,27.16,63.8,45.03,5.58,5.17,26.01,26.13,13.34,34.17Z"/>
  <path class="cls-1" d="M46.65,299.43v21.3h8.45c0,9.16,7.43,16.59,16.59,16.59s16.59-7.43,16.59-16.59h10.26c0,9.16,7.43,16.59,16.59,16.59s16.59-7.43,16.59-16.59h41.83c0,9.16,7.43,16.59,16.59,16.59s16.59-7.43,16.59-16.59h10.26c0,9.16,7.43,16.59,16.59,16.59s16.59-7.43,16.59-16.59h33.9l16.38-21.3H46.65Z"/>
</svg>