<?xml version="1.0" encoding="UTF-8"?>
<svg id="Icons" xmlns="http://www.w3.org/2000/svg" viewBox="0 0 417.3 416">
  <defs>
    <style>
      .cls-1 {
        fill: #231f20;
      }
    </style>
  </defs>
  <path class="cls-1" d="M357.15,324.19c-.61-2.68-.3-4.93.98-7.3,10.94-20.21,14.58-42.13,10.84-65.15-6.24-38.34-36.87-71.64-74.48-80.99-10.13-2.51-19.79-3.57-29.44-3.18,1.56-16.54.35-29.85-3.93-43.97-9.15-30.19-30.82-54.95-59.45-67.94-28.34-12.86-60.87-12.88-89.25-.05-40.71,18.41-62.7,50.74-65.35,96.1-1.1,18.71,3.42,37.63,13.42,56.24.85,1.59,1.2,4.18.84,6.32-.86,5.18-2.01,10.44-3.12,15.52-.6,2.76-1.21,5.53-1.77,8.3-1.43,7.06.39,13.6,5.02,17.94,4.6,4.32,11.18,5.73,18.07,3.89,2.8-.75,5.58-1.53,8.37-2.31,5.17-1.45,10.52-2.95,15.81-4.21,1.9-.45,4.25-.31,5.71.34,19.26,8.62,38.53,11.75,58.8,9.5,0,.62,0,1.24-.02,1.86-.84,28.14,8.26,52.62,27.07,72.75,19.65,21.04,46.06,32.15,73.32,32.15,13.93,0,28.08-2.9,41.66-8.87,3-1.32,5.7-1.5,8.75-.59,6.21,1.85,13.44,3.96,20.6,5.68,6.3,1.51,12.47-.06,16.92-4.31,4.41-4.23,6.31-10.53,5.07-16.87-1.21-6.19-2.62-12.82-4.43-20.85ZM78.12,235.69c1.13-5.69,2.19-11.06,3.47-16.4,1.82-7.59.83-14.7-3.05-21.73-8.33-15.11-11.92-31.23-10.67-47.91,2.32-30.82,16.54-54.28,42.26-69.72,24.96-14.99,54.33-17.04,80.57-5.64,26.48,11.5,45.19,34.62,51.35,63.43,9.56,44.79-19.92,91.79-64.38,102.64-20.24,4.93-39.78,3.26-58.07-4.98-4.62-2.08-9.17-3.12-13.73-3.12-3.26,0-6.54.53-9.85,1.59-5.04,1.62-10.15,2.97-15.55,4.39-1.01.27-2.02.54-3.04.81.23-1.14.45-2.26.67-3.38ZM337.66,332.43c1,3.59,1.72,7.31,2.48,11.24.09.46.18.92.27,1.39-.93-.25-1.86-.5-2.77-.74-5.02-1.34-9.77-2.61-14.46-4.03-6.89-2.08-13.49-1.61-20.17,1.46-11.94,5.49-24.96,7.91-38.7,7.23-31.82-1.61-60.29-22.97-70.85-53.16-4.16-11.9-5.58-24.17-4.22-36.48.04-.34.1-.47.09-.47.14-.11.71-.3,1.08-.42l.38-.12c22.49-7.42,40.96-21.04,54.9-40.48,6.11-8.52,10.93-17.97,14.32-28.06q.36-1.06,1.31-1.18c37.44-4.51,74.9,21.02,85.28,58.14,5.74,20.54,3.83,40.11-5.68,58.17-4.87,9.24-5.91,17.98-3.27,27.51Z"/>
  <path class="cls-1" d="M190.63,200.24h-10.88c-1.57,0-2.98-.21-4.24-.64-1.26-.43-2.41-1.21-3.46-2.35l-10.39-11.47c-1.67.46-3.37.8-5.12,1.03-1.75.23-3.57.34-5.47.34-5.36,0-10.25-.91-14.66-2.72-4.41-1.81-8.19-4.34-11.35-7.57-3.16-3.24-5.6-7.07-7.33-11.5-1.73-4.43-2.6-9.24-2.6-14.44s.87-10.01,2.6-14.44,4.17-8.26,7.33-11.5c3.15-3.24,6.94-5.76,11.35-7.57,4.41-1.81,9.3-2.72,14.66-2.72,3.6,0,6.98.42,10.15,1.25s6.08,2.01,8.73,3.53,5.02,3.37,7.13,5.54c2.11,2.17,3.9,4.6,5.37,7.28,1.47,2.68,2.59,5.59,3.36,8.73s1.15,6.44,1.15,9.9c0,3.17-.33,6.2-.98,9.09-.65,2.89-1.59,5.6-2.82,8.11-1.22,2.52-2.72,4.83-4.49,6.94-1.76,2.11-3.77,3.96-6.03,5.56l17.99,19.61ZM128.61,150.92c0,3.89.52,7.38,1.57,10.47s2.54,5.7,4.49,7.85c1.94,2.14,4.3,3.78,7.06,4.93,2.76,1.14,5.87,1.72,9.34,1.72s6.58-.57,9.34-1.72c2.76-1.14,5.11-2.79,7.04-4.93,1.93-2.14,3.42-4.76,4.46-7.85,1.04-3.09,1.57-6.58,1.57-10.47s-.52-7.38-1.57-10.47c-1.05-3.09-2.53-5.71-4.46-7.87s-4.27-3.81-7.04-4.95c-2.76-1.14-5.87-1.72-9.34-1.72s-6.58.57-9.34,1.72c-2.76,1.14-5.12,2.8-7.06,4.95-1.95,2.16-3.44,4.78-4.49,7.87s-1.57,6.58-1.57,10.47Z"/>
  <path class="cls-1" d="M308.43,302.81h-10.2c-1.14,0-2.08-.29-2.79-.86-.72-.57-1.26-1.28-1.62-2.13l-5.3-14.46h-29.37l-5.29,14.46c-.26.75-.77,1.44-1.52,2.06-.75.62-1.69.93-2.8.93h-10.29l27.89-70.89h13.43l27.85,70.89ZM285.14,276.05l-8.63-23.58c-.43-1.05-.87-2.29-1.32-3.73-.46-1.44-.92-2.99-1.37-4.66-.42,1.67-.87,3.23-1.32,4.68-.46,1.45-.9,2.72-1.32,3.8l-8.58,23.48h22.55Z"/>
</svg>