<?xml version="1.0" encoding="UTF-8"?>
<svg id="Icons" xmlns="http://www.w3.org/2000/svg" viewBox="0 0 417.3 416">
  <defs>
    <style>
      .cls-1 {
        fill: #231f20;
      }
    </style>
  </defs>
  <path class="cls-1" d="M275.8,285.37c22.07-19.73,35.81-47.34,35.28-77.41h-26.56l42.69-64.51,43.44,64.51h-26.94c.23,27.14-8.64,54.06-23.9,76.27-35.4,51.52-101.79,72.78-160.58,49.61-7.84-3.09-27.31-12.64-32.09-19.13-7.34-9.96-1.36-21.65,9.8-24.59,13.12-3.46,15.37,4.4,25.03,9.49,35.75,18.83,83.84,12.56,113.83-14.24Z"/>
  <path class="cls-1" d="M143.77,128.28c-12.05,9.89-22.33,23.25-28.83,37.56-.04.11.03.26,0,.38-6.28,12.62-8.97,27.25-9.11,41.36h26.94l-43.06,64.88-43.06-64.88h26.94c-.6-14.73,2.43-28.96,6.83-42.88.04-.11-.04-.26,0-.38,1.21-3.49,2.6-6.91,4.17-10.24.04-.11-.05-.27,0-.38,3.84-7.78,8.2-15.46,12.9-22.77,30.5-42.07,77.15-63.73,129.51-56.86,18.53,2.43,46.98,12.08,60.95,24.8,11.62,10.57,1.64,26.78-12.32,27.53-9.88.53-11.68-5.32-18.79-9.32-34-19.15-83.69-14.34-113.07,11.2Z"/>
</svg>