<?xml version="1.0" encoding="UTF-8"?>
<svg id="Icons" xmlns="http://www.w3.org/2000/svg" viewBox="0 0 417.3 416">
  <defs>
    <style>
      .cls-1 {
        fill: #231f20;
      }
    </style>
  </defs>
  <path class="cls-1" d="M305.04,347.61H112.26c-36.17,0-65.61-29.43-65.61-65.6v-119.37c0-36.18,29.43-65.61,65.61-65.61h192.79c36.17,0,65.61,29.43,65.61,65.61v119.37c0,36.17-29.43,65.6-65.61,65.6ZM112.26,121.84c-22.5,0-40.8,18.3-40.8,40.8v119.37c0,22.5,18.3,40.8,40.8,40.8h192.79c22.5,0,40.8-18.3,40.8-40.8v-119.37c0-22.5-18.3-40.8-40.8-40.8H112.26Z"/>
  <rect class="cls-1" x="285.42" y="68.39" width="17.25" height="74.07" rx="8.63" ry="8.63"/>
  <rect class="cls-1" x="242.29" y="68.39" width="17.25" height="74.07" rx="8.63" ry="8.63"/>
  <rect class="cls-1" x="156.02" y="68.39" width="17.25" height="74.07" rx="8.63" ry="8.63"/>
  <rect class="cls-1" x="199.16" y="68.39" width="17.25" height="74.07" rx="8.63" ry="8.63"/>
  <rect class="cls-1" x="112.89" y="68.39" width="17.25" height="74.07" rx="8.63" ry="8.63"/>
  <rect class="cls-1" x="59.48" y="162.97" width="298.05" height="14.88"/>
  <path class="cls-1" d="M210.81,195.22l14.32,29.01c.37.76,1.1,1.28,1.93,1.4l32.01,4.65c2.1.31,2.95,2.89,1.42,4.38l-23.16,22.58c-.6.59-.88,1.44-.74,2.27l5.47,31.88c.36,2.1-1.84,3.7-3.72,2.71l-28.63-15.05c-.75-.39-1.64-.39-2.39,0l-28.63,15.05c-1.88.99-4.08-.61-3.72-2.71l5.47-31.88c.14-.83-.13-1.68-.74-2.27l-23.16-22.58c-1.52-1.48-.68-4.07,1.42-4.38l32.01-4.65c.84-.12,1.56-.65,1.93-1.4l14.32-29.01c.94-1.91,3.66-1.91,4.6,0Z"/>
</svg>