<?xml version="1.0" encoding="UTF-8"?>
<svg id="Icons" xmlns="http://www.w3.org/2000/svg" xmlns:xlink="http://www.w3.org/1999/xlink" viewBox="0 0 417.3 416">
  <defs>
    <style>
      .cls-1 {
        fill: none;
      }

      .cls-2 {
        fill: #231f20;
      }

      .cls-3 {
        clip-path: url(#clippath);
      }
    </style>
    <clipPath id="clippath">
      <circle class="cls-1" cx="207.51" cy="205.21" r="44.77"/>
    </clipPath>
  </defs>
  <g>
    <path class="cls-2" d="M62.1,173.74v24.5h31.02v12.31h-31.02v33.71h-15.45v-82.77h52.2v12.25h-36.75Z"/>
    <path class="cls-2" d="M159.92,231.55v12.71h-48.48v-82.77h15.4v70.06h33.08Z"/>
  </g>
  <g class="cls-3">
    <g>
      <g>
        <g>
          <path class="cls-2" d="M239.88,299.67l-2.36-1.44c-5.43-3.31-11.23-5.95-17.26-7.84l-5.86-1.84,4.65-4.01c3.14-2.71,6.02-5.75,8.53-9.05l5.42,4.15c-1.64,2.14-3.41,4.19-5.3,6.13,3.76,1.47,7.42,3.2,10.94,5.2,1.24-1.41,2.43-2.85,3.55-4.31l5.42,4.15c-1.8,2.35-3.76,4.65-5.83,6.85l-1.9,2.01Z"/>
          <path class="cls-2" d="M152.96,300.18l-1.71-.82c-4.17-1.99-8.14-4.42-11.81-7.23l4.15-5.42c2.8,2.14,5.8,4.04,8.94,5.67,4.47-2.72,9.13-5,13.93-6.83-5.59-1.62-10.96-4.28-15.86-8.01l4.15-5.42c18.2,13.91,44.32,10.42,58.22-7.78l5.42,4.15c-3.74,4.89-8.23,8.87-13.2,11.89,5.12.51,10.21,1.49,15.24,2.94,2.6-2.39,5-5.01,7.15-7.81l5.42,4.15c-2.8,3.67-6,7.06-9.5,10.07l-1.44,1.24-1.81-.57c-22.18-6.96-46.12-3.76-65.7,8.77l-1.6,1.02Z"/>
          <path class="cls-2" d="M179.92,287.45c-10.25,0-20.57-3.23-29.32-9.92l4.15-5.42c18.2,13.91,44.32,10.42,58.22-7.78l5.42,4.15c-9.51,12.44-23.92,18.97-38.48,18.97ZM179.94,269.07c-6.35,0-12.75-2-18.17-6.15l4.15-5.42c10.14,7.75,24.69,5.81,32.45-4.33l5.42,4.15c-5.89,7.71-14.82,11.76-23.85,11.76Z"/>
          <path class="cls-2" d="M179.91,269.08c-6.54,0-12.86-2.13-18.14-6.17l4.15-5.42c10.14,7.75,24.69,5.81,32.45-4.33l5.42,4.15c-4.86,6.36-11.91,10.45-19.85,11.51-1.35.18-2.69.27-4.03.27ZM179.95,250.69c-2.53,0-4.97-.82-7.01-2.38l4.15-5.42c1.01.77,2.26,1.1,3.52.94,1.26-.17,2.38-.82,3.15-1.83l5.42,4.15c-1.88,2.46-4.6,4.04-7.67,4.45-.52.07-1.04.1-1.56.1Z"/>
          <path class="cls-2" d="M179.95,250.69c-2.53,0-4.97-.82-7.01-2.38l4.15-5.42c1.01.77,2.26,1.1,3.52.94,1.26-.17,2.38-.82,3.15-1.83l5.42,4.15c-1.88,2.46-4.6,4.04-7.67,4.45-.52.07-1.04.1-1.56.1Z"/>
          <path class="cls-2" d="M149.19,328.73l-5.42-4.15c22.35-29.24,64.33-34.85,93.57-12.49l-4.15,5.42c-26.25-20.06-63.93-15.03-84,11.22ZM134.58,317.56l-5.42-4.15c1.8-2.35,3.76-4.66,5.83-6.85,4.75-5.02,10.09-9.45,15.88-13.16,21.28-13.62,47.32-17.1,71.42-9.54,6.56,2.06,12.88,4.93,18.78,8.53,2.58,1.57,5.08,3.28,7.43,5.08l-4.15,5.43c-2.16-1.65-4.47-3.23-6.84-4.68-5.43-3.31-11.23-5.95-17.26-7.84-22.18-6.96-46.12-3.76-65.7,8.77-5.33,3.41-10.24,7.48-14.6,12.1-1.91,2.02-3.72,4.14-5.37,6.31Z"/>
          <path class="cls-2" d="M163.8,339.9l-5.42-4.15c16.2-21.19,46.61-25.25,67.8-9.05l-4.15,5.42c-18.2-13.91-44.31-10.42-58.22,7.78ZM149.19,328.73l-5.42-4.15c22.35-29.24,64.33-34.85,93.57-12.49l-4.15,5.42c-26.25-20.06-63.93-15.03-84,11.22Z"/>
          <path class="cls-2" d="M178.41,351.06l-5.42-4.15c4.86-6.36,11.91-10.45,19.85-11.51,7.94-1.06,15.81,1.03,22.17,5.9l-4.15,5.42c-10.14-7.75-24.7-5.81-32.45,4.33ZM163.8,339.9l-5.42-4.15c16.2-21.19,46.61-25.25,67.8-9.05l-4.15,5.42c-18.2-13.91-44.31-10.42-58.22,7.78Z"/>
        </g>
        <g>
          <path class="cls-2" d="M168.46,245.07l-2.36-1.44c-5.42-3.31-11.23-5.95-17.26-7.84l-5.86-1.84,4.65-4.01c3.15-2.71,6.02-5.75,8.53-9.05l5.42,4.15c-1.64,2.14-3.41,4.19-5.3,6.13,3.76,1.47,7.42,3.2,10.94,5.2,1.24-1.4,2.43-2.85,3.55-4.31l5.42,4.15c-1.8,2.35-3.76,4.66-5.83,6.85l-1.9,2.01Z"/>
          <path class="cls-2" d="M81.54,245.59l-1.71-.82c-4.17-1.99-8.14-4.42-11.81-7.23l4.15-5.42c2.8,2.14,5.8,4.04,8.94,5.67,4.45-2.71,9.1-4.99,13.89-6.82-5.65-1.65-11-4.35-15.82-8.03l4.15-5.42c8.81,6.74,19.72,9.64,30.72,8.17,11-1.47,20.76-7.13,27.5-15.95l5.42,4.15c-3.68,4.82-8.14,8.82-13.16,11.9,5.1.51,10.19,1.49,15.2,2.94,2.6-2.39,5-5.01,7.15-7.81l5.42,4.15c-2.8,3.67-6,7.06-9.5,10.07l-1.44,1.24-1.81-.57c-22.18-6.96-46.12-3.76-65.7,8.77l-1.6,1.02Z"/>
          <path class="cls-2" d="M108.49,232.85c-10.24,0-20.57-3.23-29.31-9.92l4.15-5.42c8.81,6.74,19.72,9.64,30.72,8.17,11-1.47,20.76-7.13,27.5-15.95l5.42,4.15c-9.51,12.44-23.92,18.97-38.48,18.97ZM108.52,214.47c-6.35,0-12.75-2-18.17-6.15l4.15-5.42c10.14,7.75,24.7,5.81,32.45-4.33l5.42,4.15c-5.89,7.71-14.82,11.76-23.85,11.76Z"/>
          <path class="cls-2" d="M108.52,214.47c-6.35,0-12.75-2-18.17-6.15l4.15-5.42c10.14,7.75,24.7,5.81,32.45-4.33l5.42,4.15c-5.89,7.71-14.82,11.76-23.85,11.76ZM108.54,196.09c-2.45,0-4.93-.77-7.02-2.38l4.15-5.42c2.08,1.59,5.08,1.19,6.67-.89l5.42,4.15c-2.28,2.98-5.73,4.54-9.22,4.54Z"/>
          <path class="cls-2" d="M108.54,196.09c-2.45,0-4.93-.77-7.02-2.38l4.15-5.42c2.08,1.59,5.08,1.19,6.67-.89l5.42,4.15c-2.28,2.98-5.73,4.54-9.22,4.54Z"/>
          <path class="cls-2" d="M77.77,274.14l-5.42-4.15c10.83-14.17,26.52-23.27,44.2-25.63,17.67-2.36,35.21,2.3,49.37,13.13l-4.15,5.42c-12.72-9.72-28.46-13.91-44.32-11.79-15.87,2.12-29.96,10.29-39.68,23.01ZM63.16,262.97l-5.42-4.15c1.8-2.35,3.76-4.65,5.83-6.85,4.75-5.02,10.09-9.45,15.88-13.16,21.28-13.63,47.31-17.1,71.42-9.54,6.56,2.06,12.88,4.93,18.78,8.53,2.58,1.57,5.08,3.28,7.43,5.08l-4.15,5.42c-2.16-1.65-4.46-3.23-6.84-4.68-5.43-3.31-11.23-5.95-17.27-7.84-22.18-6.96-46.12-3.76-65.7,8.77-5.32,3.41-10.24,7.48-14.6,12.1-1.91,2.02-3.72,4.15-5.37,6.31Z"/>
          <path class="cls-2" d="M92.38,285.3l-5.42-4.15c7.85-10.26,19.22-16.86,32.02-18.57,12.81-1.7,25.51,1.67,35.77,9.51l-4.15,5.42c-8.81-6.74-19.72-9.64-30.72-8.17-11,1.47-20.76,7.13-27.5,15.95ZM77.77,274.14l-5.42-4.15c10.83-14.17,26.52-23.27,44.2-25.63,17.67-2.36,35.21,2.3,49.37,13.13l-4.15,5.42c-12.72-9.72-28.45-13.91-44.32-11.79-15.87,2.12-29.96,10.29-39.68,23.01Z"/>
          <path class="cls-2" d="M106.99,296.47l-5.42-4.15c10.04-13.13,28.89-15.65,42.02-5.61l-4.15,5.42c-10.14-7.75-24.7-5.81-32.45,4.33ZM92.38,285.3l-5.42-4.15c7.85-10.26,19.22-16.86,32.02-18.57,12.81-1.7,25.51,1.67,35.77,9.51l-4.15,5.42c-8.81-6.74-19.72-9.64-30.72-8.17-11,1.47-20.76,7.13-27.5,15.95Z"/>
        </g>
      </g>
      <g>
        <g>
          <path class="cls-2" d="M192.65,241.84l-2.36-1.44c-2.58-1.57-5.08-3.28-7.43-5.08l4.15-5.42c1.46,1.12,2.98,2.2,4.55,3.23,2.88-2.85,5.95-5.49,9.19-7.89-2.33-1.37-4.58-2.88-6.73-4.52l4.15-5.42c3.29,2.52,6.86,4.7,10.61,6.49l5.54,2.65-5.17,3.31c-5.32,3.41-10.24,7.48-14.6,12.1l-1.9,2.01Z"/>
          <path class="cls-2" d="M294.48,228.25l-2.36-1.44c-5.42-3.31-11.23-5.95-17.26-7.84l-5.86-1.84,4.65-4.01c3.14-2.71,6.02-5.75,8.53-9.05l5.42,4.15c-1.64,2.14-3.41,4.19-5.3,6.13,3.76,1.47,7.42,3.21,10.94,5.2,1.24-1.41,2.43-2.85,3.55-4.31l5.42,4.15c-1.8,2.35-3.76,4.65-5.83,6.85l-1.9,2.01Z"/>
          <path class="cls-2" d="M207.55,228.76l-1.71-.82c-4.17-1.99-8.14-4.42-11.81-7.23l4.15-5.42c2.8,2.14,5.8,4.04,8.94,5.67,4.45-2.71,9.1-4.99,13.89-6.82-5.65-1.65-11-4.35-15.82-8.03l4.15-5.42c8.81,6.74,19.73,9.64,30.72,8.17,11-1.47,20.76-7.13,27.5-15.95l5.42,4.15c-3.68,4.82-8.14,8.82-13.16,11.9,5.1.51,10.18,1.49,15.2,2.94,2.6-2.39,5-5.01,7.15-7.81l5.42,4.15c-2.8,3.67-6,7.06-9.5,10.07l-1.44,1.24-1.81-.57c-22.18-6.96-46.12-3.76-65.7,8.77l-1.6,1.02Z"/>
          <path class="cls-2" d="M234.51,216.03c-10.24,0-20.57-3.23-29.31-9.92l4.15-5.42c8.81,6.74,19.73,9.64,30.72,8.17,11-1.47,20.76-7.13,27.5-15.95l5.42,4.15c-9.51,12.44-23.92,18.97-38.48,18.97ZM234.53,197.65c-6.35,0-12.75-2-18.17-6.15l4.15-5.42c10.14,7.75,24.7,5.81,32.45-4.33l5.42,4.15c-5.89,7.71-14.82,11.76-23.85,11.76Z"/>
          <path class="cls-2" d="M234.51,197.66c-6.54,0-12.86-2.13-18.14-6.17l4.15-5.42c10.14,7.75,24.7,5.81,32.45-4.33l5.42,4.15c-4.86,6.36-11.91,10.45-19.85,11.51-1.35.18-2.69.27-4.03.27ZM234.56,179.26c-2.45,0-4.93-.77-7.02-2.38l4.15-5.42c2.08,1.59,5.08,1.19,6.67-.89l5.42,4.15c-2.28,2.98-5.73,4.54-9.22,4.54Z"/>
          <path class="cls-2" d="M234.56,179.26c-2.45,0-4.93-.77-7.02-2.38l4.15-5.42c1.01.77,2.26,1.1,3.52.94,1.26-.17,2.38-.82,3.15-1.83l5.42,4.15c-2.28,2.98-5.73,4.54-9.22,4.54Z"/>
          <path class="cls-2" d="M203.79,257.31l-5.42-4.15c10.83-14.17,26.52-23.27,44.2-25.63,17.67-2.36,35.21,2.3,49.37,13.13l-4.15,5.42c-12.72-9.72-28.46-13.9-44.32-11.79-15.87,2.12-29.96,10.29-39.68,23.01ZM189.18,246.14l-5.42-4.15c1.8-2.35,3.76-4.65,5.83-6.85,4.75-5.02,10.09-9.45,15.88-13.16,21.28-13.63,47.31-17.1,71.42-9.54,6.56,2.06,12.88,4.93,18.78,8.53,2.58,1.57,5.08,3.28,7.43,5.08l-4.15,5.42c-2.16-1.65-4.46-3.23-6.84-4.68-5.43-3.31-11.23-5.95-17.27-7.84-22.18-6.96-46.12-3.76-65.7,8.77-5.32,3.41-10.23,7.48-14.6,12.1-1.91,2.02-3.72,4.15-5.37,6.31Z"/>
          <path class="cls-2" d="M218.4,268.47l-5.42-4.15c7.85-10.26,19.22-16.86,32.02-18.57,12.81-1.7,25.51,1.67,35.77,9.51l-4.15,5.42c-18.2-13.91-44.31-10.42-58.22,7.78ZM203.79,257.31l-5.42-4.15c22.35-29.24,64.33-34.85,93.57-12.49l-4.15,5.42c-26.25-20.07-63.93-15.03-84,11.22Z"/>
          <path class="cls-2" d="M233.01,279.64l-5.42-4.15c10.04-13.13,28.89-15.65,42.02-5.61l-4.15,5.42c-10.14-7.75-24.7-5.81-32.45,4.33ZM218.4,268.47l-5.42-4.15c7.85-10.26,19.22-16.86,32.02-18.57,12.81-1.7,25.51,1.67,35.77,9.51l-4.15,5.42c-18.2-13.91-44.31-10.42-58.22,7.78Z"/>
          <path class="cls-2" d="M247.62,290.81l-5.42-4.15c3.88-5.08,11.17-6.05,16.24-2.17l-4.15,5.42c-2.09-1.6-5.08-1.19-6.67.89ZM233.01,279.64l-5.42-4.15c4.86-6.36,11.91-10.45,19.85-11.51,7.93-1.05,15.81,1.03,22.17,5.9l-4.15,5.42c-10.14-7.75-24.7-5.81-32.45,4.33Z"/>
          <path class="cls-2" d="M247.62,290.81l-5.42-4.15c3.88-5.08,11.17-6.05,16.24-2.17l-4.15,5.42c-1.01-.77-2.26-1.1-3.52-.94-1.26.17-2.38.82-3.15,1.83Z"/>
        </g>
        <g>
          <path class="cls-2" d="M121.23,187.25l-2.36-1.44c-2.57-1.57-5.07-3.28-7.43-5.08l4.15-5.43c1.46,1.12,2.99,2.2,4.55,3.23,2.88-2.85,5.95-5.49,9.19-7.89-2.33-1.37-4.58-2.88-6.73-4.52l4.15-5.42c3.29,2.52,6.86,4.7,10.61,6.49l5.54,2.65-5.17,3.31c-5.32,3.41-10.24,7.48-14.6,12.1l-1.9,2.01Z"/>
          <path class="cls-2" d="M223.06,173.65l-2.36-1.44c-5.43-3.31-11.24-5.95-17.26-7.84l-5.86-1.84,4.65-4.01c3.14-2.71,6.02-5.75,8.53-9.05l5.42,4.15c-1.64,2.14-3.41,4.19-5.3,6.13,3.76,1.47,7.42,3.2,10.94,5.2,1.24-1.41,2.43-2.85,3.54-4.31l5.42,4.15c-1.79,2.35-3.76,4.65-5.83,6.85l-1.9,2.01Z"/>
          <path class="cls-2" d="M136.13,174.17l-1.71-.82c-4.17-1.99-8.14-4.42-11.81-7.23l4.15-5.42c2.8,2.14,5.8,4.04,8.94,5.67,4.45-2.71,9.1-4.99,13.89-6.82-5.65-1.65-11-4.35-15.82-8.03l4.15-5.42c8.81,6.74,19.72,9.64,30.72,8.17,11-1.47,20.76-7.13,27.5-15.95l5.42,4.15c-3.68,4.82-8.14,8.82-13.16,11.9,5.1.51,10.18,1.49,15.2,2.94,2.6-2.39,5-5.01,7.15-7.81l5.42,4.15c-2.8,3.67-6,7.06-9.5,10.07l-1.44,1.24-1.81-.57c-22.18-6.96-46.12-3.76-65.7,8.77l-1.6,1.02Z"/>
          <path class="cls-2" d="M163.09,161.43c-10.25,0-20.57-3.23-29.32-9.92l4.15-5.42c18.2,13.91,44.31,10.42,58.22-7.78l5.42,4.15c-9.51,12.44-23.92,18.97-38.48,18.97ZM163.08,143.07c-6.54,0-12.86-2.13-18.14-6.17l4.15-5.42c10.14,7.75,24.7,5.81,32.45-4.33l5.42,4.15c-4.86,6.36-11.91,10.45-19.85,11.51-1.35.18-2.69.27-4.03.27Z"/>
          <path class="cls-2" d="M163.08,143.07c-6.54,0-12.86-2.13-18.14-6.17l4.15-5.42c10.14,7.75,24.7,5.81,32.45-4.33l5.42,4.15c-4.86,6.36-11.91,10.45-19.85,11.51-1.35.18-2.69.27-4.03.27ZM163.12,124.68c-2.53,0-4.97-.82-7.01-2.38l4.15-5.42c1.01.77,2.26,1.1,3.52.94,1.26-.17,2.38-.82,3.15-1.83l5.42,4.15c-1.88,2.46-4.6,4.04-7.67,4.45-.52.07-1.04.1-1.56.1Z"/>
          <path class="cls-2" d="M163.12,124.68c-2.53,0-4.97-.82-7.01-2.38l4.15-5.42c1.01.77,2.26,1.1,3.52.94,1.26-.17,2.38-.82,3.15-1.83l5.42,4.15c-1.88,2.46-4.6,4.04-7.67,4.45-.52.07-1.04.1-1.56.1Z"/>
          <path class="cls-2" d="M132.37,202.71l-5.42-4.15c10.83-14.17,26.52-23.27,44.2-25.63,17.68-2.36,35.21,2.3,49.37,13.13l-4.15,5.42c-12.72-9.72-28.46-13.91-44.32-11.79-15.87,2.12-29.96,10.29-39.68,23ZM117.76,191.55l-5.42-4.15c1.8-2.35,3.76-4.66,5.83-6.85,4.75-5.02,10.09-9.45,15.88-13.16,21.28-13.62,47.32-17.1,71.42-9.54,6.56,2.06,12.88,4.93,18.78,8.53,2.57,1.57,5.07,3.28,7.43,5.08l-4.15,5.43c-2.17-1.66-4.47-3.23-6.84-4.68-5.43-3.31-11.24-5.95-17.26-7.84-22.18-6.96-46.12-3.76-65.7,8.77-5.33,3.41-10.24,7.48-14.6,12.1-1.91,2.02-3.72,4.14-5.37,6.31Z"/>
          <path class="cls-2" d="M146.97,213.88l-5.42-4.15c16.2-21.19,46.61-25.25,67.8-9.05l-4.15,5.42c-18.2-13.91-44.32-10.42-58.22,7.78ZM132.37,202.71l-5.42-4.15c22.35-29.24,64.33-34.85,93.57-12.49l-4.15,5.42c-26.25-20.07-63.93-15.03-84,11.22Z"/>
          <path class="cls-2" d="M161.58,225.05l-5.42-4.15c4.86-6.36,11.91-10.45,19.85-11.51,7.94-1.06,15.81,1.04,22.17,5.9l-4.15,5.42c-10.14-7.75-24.7-5.81-32.45,4.33ZM146.97,213.88l-5.42-4.15c16.2-21.19,46.61-25.25,67.8-9.05l-4.15,5.42c-18.2-13.91-44.32-10.42-58.22,7.78Z"/>
          <path class="cls-2" d="M176.19,236.21l-5.42-4.15c1.88-2.46,4.6-4.04,7.67-4.45,3.07-.41,6.11.4,8.57,2.28l-4.15,5.42c-1.01-.77-2.26-1.1-3.52-.94-1.26.17-2.38.82-3.15,1.83ZM161.58,225.05l-5.42-4.15c10.04-13.13,28.89-15.65,42.02-5.61l-4.15,5.42c-10.14-7.75-24.7-5.81-32.45,4.33Z"/>
          <path class="cls-2" d="M176.19,236.21l-5.42-4.15c1.88-2.46,4.6-4.04,7.67-4.45,3.07-.41,6.11.4,8.57,2.28l-4.15,5.42c-1.01-.77-2.26-1.1-3.52-.94-1.26.17-2.38.82-3.15,1.83Z"/>
        </g>
      </g>
      <g>
        <g>
          <path class="cls-2" d="M247.25,170.42l-2.36-1.44c-2.57-1.57-5.07-3.28-7.43-5.08l4.15-5.43c1.46,1.12,2.99,2.2,4.55,3.23,2.88-2.85,5.95-5.49,9.19-7.89-2.33-1.37-4.58-2.88-6.73-4.52l4.15-5.42c3.3,2.52,6.86,4.7,10.61,6.49l5.54,2.65-5.17,3.31c-5.32,3.41-10.24,7.48-14.6,12.1l-1.9,2.01Z"/>
          <path class="cls-2" d="M262.15,157.34l-1.71-.82c-4.17-1.99-8.14-4.42-11.81-7.23l4.15-5.42c2.8,2.14,5.81,4.04,8.94,5.67,4.45-2.71,9.1-4.99,13.89-6.82-5.65-1.65-11-4.35-15.82-8.03l4.15-5.42c8.81,6.74,19.73,9.64,30.72,8.17,11-1.47,20.76-7.13,27.5-15.95l5.42,4.15c-3.68,4.82-8.14,8.82-13.16,11.9,5.1.51,10.18,1.49,15.2,2.94,2.6-2.39,5-5.01,7.15-7.81l5.42,4.15c-2.81,3.67-6,7.06-9.5,10.07l-1.44,1.24-1.81-.57c-22.18-6.96-46.12-3.76-65.7,8.77l-1.6,1.02Z"/>
          <path class="cls-2" d="M289.11,144.6c-10.25,0-20.57-3.23-29.32-9.92l4.15-5.42c18.2,13.91,44.31,10.42,58.22-7.78l5.42,4.15c-9.51,12.44-23.92,18.97-38.48,18.97ZM289.13,126.22c-6.35,0-12.75-2-18.17-6.15l4.15-5.42c10.14,7.75,24.69,5.81,32.45-4.33l5.42,4.15c-5.89,7.71-14.82,11.76-23.85,11.76Z"/>
          <path class="cls-2" d="M258.38,185.89l-5.42-4.15c10.83-14.17,26.52-23.27,44.2-25.63,17.68-2.36,35.21,2.3,49.37,13.13l-4.15,5.42c-12.72-9.72-28.46-13.91-44.32-11.79-15.87,2.12-29.96,10.29-39.68,23ZM243.77,174.72l-5.42-4.15c1.79-2.35,3.76-4.65,5.83-6.85,4.75-5.02,10.09-9.45,15.88-13.16,21.28-13.62,47.32-17.1,71.42-9.54,6.56,2.06,12.88,4.93,18.78,8.53,2.57,1.57,5.07,3.28,7.43,5.08l-4.15,5.43c-2.17-1.66-4.47-3.23-6.84-4.68-5.43-3.31-11.24-5.95-17.26-7.84-22.18-6.96-46.12-3.76-65.7,8.77-5.33,3.41-10.24,7.48-14.6,12.1-1.91,2.02-3.72,4.15-5.37,6.31Z"/>
          <path class="cls-2" d="M272.99,197.05l-5.42-4.15c16.2-21.19,46.61-25.25,67.8-9.05l-4.15,5.42c-18.2-13.91-44.32-10.42-58.22,7.78ZM258.38,185.89l-5.42-4.15c22.35-29.24,64.33-34.85,93.57-12.49l-4.15,5.42c-26.25-20.07-63.93-15.03-84,11.22Z"/>
          <path class="cls-2" d="M287.6,208.22l-5.42-4.15c4.86-6.36,11.91-10.45,19.85-11.51,7.94-1.06,15.81,1.04,22.17,5.9l-4.15,5.42c-10.14-7.75-24.7-5.81-32.45,4.33ZM272.99,197.05l-5.42-4.15c16.2-21.19,46.61-25.25,67.8-9.05l-4.15,5.42c-18.2-13.91-44.32-10.42-58.22,7.78Z"/>
          <path class="cls-2" d="M302.21,219.39l-5.42-4.15c1.88-2.46,4.6-4.04,7.67-4.45,3.07-.41,6.11.4,8.57,2.28l-4.15,5.42c-1.01-.77-2.26-1.1-3.52-.94-1.26.17-2.38.82-3.15,1.83ZM287.6,208.22l-5.42-4.15c4.86-6.36,11.91-10.45,19.85-11.51,7.94-1.06,15.81,1.04,22.17,5.9l-4.15,5.42c-10.14-7.75-24.7-5.81-32.45,4.33Z"/>
          <path class="cls-2" d="M302.21,219.39l-5.42-4.15c1.88-2.46,4.6-4.04,7.67-4.45,3.07-.41,6.11.4,8.57,2.28l-4.15,5.42c-1.01-.77-2.26-1.1-3.52-.94-1.26.17-2.38.82-3.15,1.83Z"/>
        </g>
        <g>
          <path class="cls-2" d="M175.82,115.83l-2.36-1.44c-2.58-1.57-5.08-3.28-7.43-5.08l4.15-5.42c1.46,1.12,2.98,2.2,4.55,3.23,2.88-2.85,5.95-5.49,9.19-7.89-2.33-1.37-4.58-2.88-6.72-4.52l4.15-5.42c3.3,2.52,6.86,4.7,10.61,6.49l5.54,2.65-5.17,3.31c-5.32,3.41-10.24,7.48-14.6,12.1l-1.9,2.01Z"/>
          <path class="cls-2" d="M190.73,102.74l-1.71-.82c-4.17-1.99-8.14-4.42-11.81-7.23l4.15-5.42c2.8,2.14,5.81,4.04,8.95,5.67,4.45-2.71,9.1-4.99,13.89-6.82-5.65-1.65-11-4.35-15.82-8.03l4.15-5.42c18.19,13.91,44.31,10.42,58.22-7.78l5.42,4.15c-3.68,4.82-8.14,8.82-13.16,11.9,5.1.51,10.18,1.49,15.2,2.94,2.61-2.39,5-5.01,7.14-7.81l5.43,4.15c-2.8,3.66-6,7.05-9.5,10.07l-1.44,1.24-1.81-.57c-22.18-6.96-46.12-3.76-65.7,8.77l-1.6,1.02Z"/>
          <path class="cls-2" d="M217.68,90.01c-10.24,0-20.57-3.23-29.31-9.92l4.15-5.42c8.81,6.74,19.72,9.64,30.72,8.17,11-1.47,20.76-7.13,27.5-15.95l5.42,4.15c-9.51,12.44-23.92,18.97-38.48,18.97ZM217.71,71.63c-6.35,0-12.75-2-18.17-6.15l4.15-5.42c10.14,7.75,24.7,5.81,32.45-4.33l5.42,4.15c-5.89,7.71-14.82,11.76-23.85,11.76Z"/>
          <path class="cls-2" d="M186.96,131.29l-5.42-4.15c10.83-14.17,26.52-23.27,44.2-25.63,17.67-2.36,35.21,2.3,49.37,13.13l-4.15,5.42c-12.72-9.72-28.46-13.91-44.32-11.79-15.87,2.12-29.96,10.29-39.68,23.01ZM172.35,120.12l-5.42-4.15c1.8-2.35,3.76-4.65,5.83-6.85,4.75-5.02,10.09-9.45,15.88-13.16,21.28-13.63,47.31-17.1,71.42-9.54,6.56,2.06,12.88,4.93,18.78,8.53,2.58,1.57,5.08,3.28,7.43,5.08l-4.15,5.42c-2.16-1.65-4.46-3.23-6.84-4.68-5.43-3.31-11.23-5.95-17.27-7.84-22.18-6.96-46.12-3.76-65.7,8.77-5.32,3.41-10.23,7.48-14.6,12.1-1.91,2.02-3.72,4.15-5.37,6.31Z"/>
          <path class="cls-2" d="M201.57,142.46l-5.42-4.15c7.85-10.26,19.22-16.86,32.02-18.57,12.81-1.71,25.51,1.67,35.77,9.51l-4.15,5.42c-8.81-6.74-19.72-9.64-30.72-8.17-11,1.47-20.76,7.13-27.5,15.95ZM186.96,131.29l-5.42-4.15c10.83-14.17,26.52-23.27,44.2-25.63,17.67-2.36,35.21,2.3,49.37,13.13l-4.15,5.42c-12.72-9.72-28.45-13.91-44.32-11.79-15.87,2.12-29.96,10.29-39.68,23.01Z"/>
          <path class="cls-2" d="M216.18,153.63l-5.42-4.15c10.04-13.13,28.89-15.65,42.02-5.61l-4.15,5.42c-10.14-7.75-24.7-5.81-32.45,4.33ZM201.57,142.46l-5.42-4.15c7.85-10.26,19.22-16.86,32.02-18.57,12.81-1.71,25.51,1.67,35.77,9.51l-4.15,5.42c-8.81-6.74-19.72-9.64-30.72-8.17-11,1.47-20.76,7.13-27.5,15.95Z"/>
          <path class="cls-2" d="M230.79,164.79l-5.42-4.15c3.88-5.08,11.17-6.05,16.24-2.17l-4.15,5.42c-2.09-1.6-5.08-1.19-6.67.89ZM216.18,153.63l-5.42-4.15c10.04-13.13,28.89-15.65,42.02-5.61l-4.15,5.42c-10.14-7.75-24.7-5.81-32.45,4.33Z"/>
          <path class="cls-2" d="M230.79,164.79l-5.42-4.15c3.88-5.08,11.17-6.05,16.24-2.17l-4.15,5.42c-1.01-.77-2.26-1.1-3.52-.94-1.26.17-2.38.82-3.15,1.83Z"/>
        </g>
      </g>
    </g>
  </g>
  <path class="cls-2" d="M370.65,161.49l-25.7,82.77h-13.91l-18.09-56.55c-.5-1.37-.95-3.05-1.37-5.04-.23.95-.46,1.85-.69,2.69-.23.84-.48,1.62-.74,2.35l-18.26,56.55h-13.97l-25.64-82.77h12.88c1.34,0,2.45.31,3.35.94.9.63,1.5,1.48,1.8,2.55l14.08,49.51c.3,1.22.6,2.55.89,3.98.29,1.43.58,2.93.89,4.49.31-1.6.64-3.11,1-4.52.36-1.41.75-2.73,1.17-3.95l16.26-49.51c.31-.88.91-1.68,1.8-2.4.9-.72,1.99-1.09,3.29-1.09h4.52c1.34,0,2.42.32,3.26.97.84.65,1.47,1.49,1.89,2.52l16.2,49.51c.8,2.37,1.53,5.09,2.17,8.18.5-3.01,1.05-5.74,1.66-8.18l14.08-49.51c.23-.95.81-1.77,1.75-2.46.93-.69,2.05-1.03,3.35-1.03h12.08Z"/>
</svg>