<?xml version="1.0" encoding="UTF-8"?>
<svg id="Icons" xmlns="http://www.w3.org/2000/svg" viewBox="0 0 417.3 416">
  <defs>
    <style>
      .cls-1 {
        fill: #231f20;
      }
    </style>
  </defs>
  <path class="cls-1" d="M81.85,206.14c-14.84,0-26.91-12.07-26.91-26.91s12.07-26.91,26.91-26.91,26.91,12.07,26.91,26.91-12.07,26.91-26.91,26.91ZM81.85,166.76c-6.88,0-12.48,5.6-12.48,12.48s5.6,12.48,12.48,12.48,12.48-5.6,12.48-12.48-5.6-12.48-12.48-12.48Z"/>
  <path class="cls-1" d="M168.49,139.21c-14.84,0-26.91-12.07-26.91-26.91s12.07-26.91,26.91-26.91,26.91,12.07,26.91,26.91-12.07,26.91-26.91,26.91ZM168.49,99.82c-6.88,0-12.48,5.6-12.48,12.48s5.6,12.48,12.48,12.48,12.48-5.6,12.48-12.48-5.6-12.48-12.48-12.48Z"/>
  <path class="cls-1" d="M255.13,178.08c-14.84,0-26.91-12.07-26.91-26.91s12.07-26.91,26.91-26.91,26.91,12.07,26.91,26.91-12.07,26.91-26.91,26.91ZM255.13,138.69c-6.88,0-12.48,5.6-12.48,12.48s5.6,12.48,12.48,12.48,12.48-5.6,12.48-12.48-5.6-12.48-12.48-12.48Z"/>
  <path class="cls-1" d="M341.77,105.11c-14.84,0-26.91-12.07-26.91-26.91s12.07-26.91,26.91-26.91,26.91,12.07,26.91,26.91-12.07,26.91-26.91,26.91ZM341.77,65.73c-6.88,0-12.48,5.6-12.48,12.48s5.6,12.48,12.48,12.48,12.48-5.6,12.48-12.48-5.6-12.48-12.48-12.48Z"/>
  <path class="cls-1" d="M95.19,170.17c-2.21,0-4.39-1.01-5.81-2.93-2.37-3.2-1.69-7.72,1.51-10.09l54.63-40.38c3.2-2.37,7.72-1.69,10.09,1.51,2.37,3.2,1.69,7.72-1.51,10.09l-54.63,40.38c-1.29.95-2.79,1.41-4.28,1.41Z"/>
  <path class="cls-1" d="M235.32,147.6c-1.26,0-2.53-.33-3.69-1.02l-47.14-28.09c-3.42-2.04-4.54-6.47-2.5-9.89,2.04-3.42,6.47-4.54,9.89-2.5l47.14,28.09c3.42,2.04,4.54,6.47,2.5,9.89-1.35,2.26-3.75,3.52-6.2,3.52Z"/>
  <path class="cls-1" d="M269.77,145.23c-2.05,0-4.08-.87-5.51-2.55-2.58-3.04-2.2-7.59.84-10.17l54.63-46.32c3.04-2.57,7.59-2.2,10.17.84,2.58,3.04,2.2,7.59-.84,10.17l-54.63,46.32c-1.36,1.15-3.01,1.71-4.66,1.71Z"/>
  <path class="cls-1" d="M360.9,345.2h-7.1v-195.74c0-6.64-5.39-12.03-12.03-12.03s-12.03,5.38-12.03,12.03v195.74h-62.58v-134.53c0-6.64-5.39-12.03-12.03-12.03s-12.03,5.38-12.03,12.03v134.53h-62.59v-153.31c0-6.64-5.39-12.03-12.03-12.03s-12.03,5.38-12.03,12.03v153.31h-62.59v-94.6c0-6.64-5.39-12.03-12.03-12.03s-12.03,5.38-12.03,12.03v94.6h-13.42c-5.39,0-9.75,4.36-9.75,9.75s4.37,9.75,9.75,9.75h304.5c5.39,0,9.75-4.36,9.75-9.75s-4.37-9.75-9.75-9.75Z"/>
</svg>