<?xml version="1.0" encoding="UTF-8"?>
<svg id="Icons" xmlns="http://www.w3.org/2000/svg" viewBox="0 0 417.3 416">
  <defs>
    <style>
      .cls-1 {
        fill: #231f20;
      }
    </style>
  </defs>
  <path class="cls-1" d="M71.79,70.38c0,12.98.2,24.79-.06,36.58-.22,9.78-8.87,16.54-16.62,12.35-3.7-2-7.61-7.38-7.83-11.43-.89-16.55-.67-33.19-.3-49.78.18-7.96,5.16-12.34,13.24-12.43,15.85-.18,31.7-.16,47.55-.01,8.33.08,13.86,5.54,13.63,12.89-.22,7.03-5.47,11.67-13.87,11.78-11.53.16-23.06.04-35.73.04Z"/>
  <path class="cls-1" d="M71.77,345.69c11.01,0,20.78,0,30.55,0,2.26,0,4.54-.14,6.78.06,7.54.68,12.5,5.87,12.27,12.67-.22,6.42-5.21,11.73-12.32,11.86-16.59.29-33.2.3-49.79,0-7.47-.13-12.09-4.71-12.28-12.6-.4-16.59-.34-33.19-.02-49.78.14-7.33,6.06-12.69,12.53-12.5,6.44.19,12,5.68,12.19,13.02.31,12.04.08,24.09.08,37.27Z"/>
  <path class="cls-1" d="M345.54,70.35c-9.74,0-18.74.01-27.73,0-3.52,0-7.07.19-10.55-.17-7.07-.74-11.61-5.96-11.38-12.63.22-6.06,5.12-11.64,11.61-11.77,17.1-.32,34.22-.43,51.31.04,7.33.2,11.39,5.42,11.51,12.57.29,16.59.36,33.2-.07,49.79-.2,7.59-5.99,12.54-12.62,12.28-6.63-.26-11.88-5.62-12.02-13.05-.24-12.02-.06-24.04-.06-37.05Z"/>
  <path class="cls-1" d="M345.53,345.66c0-12.66-.06-23.96.02-35.26.07-8.8,5.28-14.91,12.53-14.96,6.99-.04,12.2,5.61,12.35,14.31.26,15.34.31,30.69.06,46.03-.16,10.13-4.96,14.58-15.09,14.64-15.09.08-30.18.09-45.27-.03-8.59-.07-14.17-5.05-14.21-12.29-.04-7.3,5.31-12.22,14.11-12.38,11.51-.21,23.04-.05,35.5-.05Z"/>
  <g>
    <path class="cls-1" d="M180.18,282.02c-19.56,0-39.13.02-58.69-.01-9.62-.02-13.35-3.7-13.36-13.2-.03-21.76-.03-43.52,0-65.27.01-8.99,3.66-12.65,12.66-12.66,39.31-.03,78.62-.03,117.93,0,9.23,0,13.08,3.83,13.1,12.92.03,21.76.03,43.52,0,65.27-.01,9.31-3.64,12.94-12.95,12.95-19.56.04-39.13.01-58.69,0Z"/>
    <path class="cls-1" d="M225.55,107.01c21.53.1,39.13,17.72,39.15,39.19.02,22.06-17.89,39.74-39.96,39.46-21.66-.27-38.89-17.79-38.8-39.45.09-21.88,17.7-39.31,39.61-39.21Z"/>
    <path class="cls-1" d="M311.53,236.13c0,12.61.06,25.22-.03,37.82-.04,5.43-1.57,6.21-6.25,3.28-14.56-9.1-29.13-18.18-43.53-27.52-1.62-1.05-2.23-3.68-3.25-5.61-.15-.29-.03-.72-.02-1.09.1-6.57-1.92-14.32.89-19.37,2.8-5.03,10.41-7.42,16-10.84,9.82-6,19.68-11.94,29.56-17.83,5.38-3.21,6.52-2.5,6.64,3.87,0,.18,0,.37,0,.55,0,12.24,0,24.48,0,36.73Z"/>
    <path class="cls-1" d="M170.62,155.11c.37,16.66-12.63,30.23-29.3,30.57-16.42.34-29.9-12.48-30.37-28.89-.48-16.71,12.45-30.49,28.97-30.87,16.66-.38,30.33,12.62,30.71,29.19Z"/>
  </g>
</svg>