<?xml version="1.0" encoding="UTF-8"?>
<svg id="Layer_1" data-name="Layer 1" xmlns="http://www.w3.org/2000/svg" viewBox="0 0 267.12 267.11">
  <defs>
    <style>
      .cls-1 {
        fill: #57586f;
      }

      .cls-2 {
        fill: #878898;
      }

      .cls-3 {
        fill: #0f1031;
      }

      .cls-4 {
        fill: #ca9a2c;
      }
    </style>
  </defs>
  <path class="cls-2" d="M122.24,250.79c-36.65-38.17-73.07-57.75-109.29-60.08-2.09-.13-3.73-1.82-3.73-3.91V47.98c0-2.34,2.04-4.18,4.36-3.9,39.47,4.77,76.66,18.33,108.65,52.02v154.69Z"/>
  <path class="cls-3" d="M144.88,250.84c36.65-38.17,73.07-57.75,109.29-60.08,2.09-.13,3.73-1.82,3.73-3.91V48.04c0-2.34-2.04-4.18-4.36-3.9-39.47,4.77-76.66,18.33-108.65,52.02v154.69Z"/>
  <path class="cls-1" d="M144.63,250.95c-7.93,1.88-15.46,1.87-22.59.01-.46-.12-.78-.54-.78-1.02V96.98c0-.66.6-1.13,1.24-1,7.3,1.47,14.53,1.31,21.71-.03.64-.12,1.23.36,1.23,1.01v152.96c0,.48-.34.91-.81,1.03Z"/>
  <path class="cls-4" d="M133.81,28.44c-21.01,0-38.94-5.43-45.99-13.07-1.12-1.21-3.13-.42-3.13,1.23v18.72c-.01.17-.03.34-.03.5,0,10.84,20.62,19.7,46.56,20.25,2.7.13,5.4.08,8.08-.1,24.46-1.13,43.5-9.66,43.61-20.05.02-.02.03-.03.05-.05v-19.32c0-1.68-2.04-2.42-3.18-1.18-7.04,7.64-24.97,13.07-45.98,13.07Z"/>
</svg>