<?xml version="1.0" encoding="UTF-8"?>
<svg id="Layer_1" data-name="Layer 1" xmlns="http://www.w3.org/2000/svg" viewBox="0 0 612 267.11">
  <defs>
    <style>
      .cls-1 {
        fill: #57586f;
      }

      .cls-2 {
        fill: #878898;
      }

      .cls-3 {
        font-family: FranklinGothicATF-Bold, 'Franklin Gothic ATF';
        font-size: 52.79px;
        font-weight: 700;
      }

      .cls-4 {
        fill: #0f1031;
      }

      .cls-5 {
        letter-spacing: -.02em;
      }

      .cls-6 {
        fill: #ca9a2c;
      }

      .cls-7 {
        letter-spacing: -.01em;
      }
    </style>
  </defs>
  <g>
    <path class="cls-2" d="M136.12,257.75c-37.89-39.46-75.54-59.71-112.99-62.11-2.16-.14-3.85-1.88-3.85-4.04V48.09c0-2.42,2.11-4.32,4.51-4.03,40.8,4.94,79.26,18.96,112.33,53.78v159.92Z"/>
    <path class="cls-4" d="M159.53,257.81c37.89-39.46,75.54-59.71,112.99-62.11,2.16-.14,3.85-1.88,3.85-4.04V48.14c0-2.42-2.11-4.32-4.51-4.03-40.8,4.94-79.26,18.96-112.33,53.78v159.92Z"/>
    <path class="cls-1" d="M159.27,257.92c-8.2,1.95-15.98,1.93-23.36.01-.48-.12-.81-.56-.81-1.06V98.74c0-.68.62-1.17,1.29-1.04,7.54,1.52,15.02,1.35,22.45-.03.66-.12,1.27.37,1.27,1.04v158.14c0,.5-.35.95-.84,1.06Z"/>
    <path class="cls-6" d="M148.09,27.88c-21.72,0-40.26-5.61-47.55-13.52-1.15-1.25-3.24-.43-3.24,1.27v19.36c-.01.17-.03.35-.03.52,0,11.21,21.32,20.36,48.14,20.93,2.79.13,5.58.09,8.36-.11,25.29-1.17,44.97-9.99,45.09-20.73.02-.02.04-.03.05-.05V15.59c0-1.74-2.11-2.5-3.29-1.22-7.28,7.9-25.81,13.52-47.53,13.52Z"/>
  </g>
  <text class="cls-3" transform="translate(325.43 83.33)"><tspan class="cls-5" x="0" y="0">P</tspan><tspan x="36.05" y="0">olybric</tspan><tspan class="cls-7" x="214.62" y="0">k</tspan><tspan class="cls-7" x="0" y="56.3">L</tspan><tspan x="30.4" y="56.3">earning</tspan><tspan x="0" y="112.61">Commons</tspan></text>
</svg>